<svg width="1440" height="400" viewBox="0 0 1440 400" fill="none" xmlns="http://www.w3.org/2000/svg">
<rect width="1440" height="400" fill="#FF414B"/>
<path d="M425.048 228.66C425.048 227 425.388 225.53 426.068 224.25C426.768 222.97 427.708 221.98 428.888 221.28C430.088 220.56 431.418 220.2 432.878 220.2C433.958 220.2 435.018 220.44 436.058 220.92C437.118 221.38 437.958 222 438.578 222.78V214.8H442.028V237H438.578V234.51C438.018 235.31 437.238 235.97 436.238 236.49C435.258 237.01 434.128 237.27 432.848 237.27C431.408 237.27 430.088 236.91 428.888 236.19C427.708 235.45 426.768 234.43 426.068 233.13C425.388 231.81 425.048 230.32 425.048 228.66ZM438.578 228.72C438.578 227.58 438.338 226.59 437.858 225.75C437.398 224.91 436.788 224.27 436.028 223.83C435.268 223.39 434.448 223.17 433.568 223.17C432.688 223.17 431.868 223.39 431.108 223.83C430.348 224.25 429.728 224.88 429.248 225.72C428.788 226.54 428.558 227.52 428.558 228.66C428.558 229.8 428.788 230.8 429.248 231.66C429.728 232.52 430.348 233.18 431.108 233.64C431.888 234.08 432.708 234.3 433.568 234.3C434.448 234.3 435.268 234.08 436.028 233.64C436.788 233.2 437.398 232.56 437.858 231.72C438.338 230.86 438.578 229.86 438.578 228.72ZM453.691 237.27C452.131 237.27 450.721 236.92 449.461 236.22C448.201 235.5 447.211 234.5 446.491 233.22C445.771 231.92 445.411 230.42 445.411 228.72C445.411 227.04 445.781 225.55 446.521 224.25C447.261 222.95 448.271 221.95 449.551 221.25C450.831 220.55 452.261 220.2 453.841 220.2C455.421 220.2 456.851 220.55 458.131 221.25C459.411 221.95 460.421 222.95 461.161 224.25C461.901 225.55 462.271 227.04 462.271 228.72C462.271 230.4 461.891 231.89 461.131 233.19C460.371 234.49 459.331 235.5 458.011 236.22C456.711 236.92 455.271 237.27 453.691 237.27ZM453.691 234.3C454.571 234.3 455.391 234.09 456.151 233.67C456.931 233.25 457.561 232.62 458.041 231.78C458.521 230.94 458.761 229.92 458.761 228.72C458.761 227.52 458.531 226.51 458.071 225.69C457.611 224.85 457.001 224.22 456.241 223.8C455.481 223.38 454.661 223.17 453.781 223.17C452.901 223.17 452.081 223.38 451.321 223.8C450.581 224.22 449.991 224.85 449.551 225.69C449.111 226.51 448.891 227.52 448.891 228.72C448.891 230.5 449.341 231.88 450.241 232.86C451.161 233.82 452.311 234.3 453.691 234.3ZM471.651 237.27C470.351 237.27 469.181 237.04 468.141 236.58C467.121 236.1 466.311 235.46 465.711 234.66C465.111 233.84 464.791 232.93 464.751 231.93H468.291C468.351 232.63 468.681 233.22 469.281 233.7C469.901 234.16 470.671 234.39 471.591 234.39C472.551 234.39 473.291 234.21 473.811 233.85C474.351 233.47 474.621 232.99 474.621 232.41C474.621 231.79 474.321 231.33 473.721 231.03C473.141 230.73 472.211 230.4 470.931 230.04C469.691 229.7 468.681 229.37 467.901 229.05C467.121 228.73 466.441 228.24 465.861 227.58C465.301 226.92 465.021 226.05 465.021 224.97C465.021 224.09 465.281 223.29 465.801 222.57C466.321 221.83 467.061 221.25 468.021 220.83C469.001 220.41 470.121 220.2 471.381 220.2C473.261 220.2 474.771 220.68 475.911 221.64C477.071 222.58 477.691 223.87 477.771 225.51H474.351C474.291 224.77 473.991 224.18 473.451 223.74C472.911 223.3 472.181 223.08 471.261 223.08C470.361 223.08 469.671 223.25 469.191 223.59C468.711 223.93 468.471 224.38 468.471 224.94C468.471 225.38 468.631 225.75 468.951 226.05C469.271 226.35 469.661 226.59 470.121 226.77C470.581 226.93 471.261 227.14 472.161 227.4C473.361 227.72 474.341 228.05 475.101 228.39C475.881 228.71 476.551 229.19 477.111 229.83C477.671 230.47 477.961 231.32 477.981 232.38C477.981 233.32 477.721 234.16 477.201 234.9C476.681 235.64 475.941 236.22 474.981 236.64C474.041 237.06 472.931 237.27 471.651 237.27ZM509.48 220.2C510.78 220.2 511.94 220.47 512.96 221.01C514 221.55 514.81 222.35 515.39 223.41C515.99 224.47 516.29 225.75 516.29 227.25V237H512.9V227.76C512.9 226.28 512.53 225.15 511.79 224.37C511.05 223.57 510.04 223.17 508.76 223.17C507.48 223.17 506.46 223.57 505.7 224.37C504.96 225.15 504.59 226.28 504.59 227.76V237H501.2V227.76C501.2 226.28 500.83 225.15 500.09 224.37C499.35 223.57 498.34 223.17 497.06 223.17C495.78 223.17 494.76 223.57 494 224.37C493.26 225.15 492.89 226.28 492.89 227.76V237H489.47V220.47H492.89V222.36C493.45 221.68 494.16 221.15 495.02 220.77C495.88 220.39 496.8 220.2 497.78 220.2C499.1 220.2 500.28 220.48 501.32 221.04C502.36 221.6 503.16 222.41 503.72 223.47C504.22 222.47 505 221.68 506.06 221.1C507.12 220.5 508.26 220.2 509.48 220.2ZM519.502 228.66C519.502 227 519.842 225.53 520.522 224.25C521.222 222.97 522.162 221.98 523.342 221.28C524.542 220.56 525.862 220.2 527.302 220.2C528.602 220.2 529.732 220.46 530.692 220.98C531.672 221.48 532.452 222.11 533.032 222.87V220.47H536.482V237H533.032V234.54C532.452 235.32 531.662 235.97 530.662 236.49C529.662 237.01 528.522 237.27 527.242 237.27C525.822 237.27 524.522 236.91 523.342 236.19C522.162 235.45 521.222 234.43 520.522 233.13C519.842 231.81 519.502 230.32 519.502 228.66ZM533.032 228.72C533.032 227.58 532.792 226.59 532.312 225.75C531.852 224.91 531.242 224.27 530.482 223.83C529.722 223.39 528.902 223.17 528.022 223.17C527.142 223.17 526.322 223.39 525.562 223.83C524.802 224.25 524.182 224.88 523.702 225.72C523.242 226.54 523.012 227.52 523.012 228.66C523.012 229.8 523.242 230.8 523.702 231.66C524.182 232.52 524.802 233.18 525.562 233.64C526.342 234.08 527.162 234.3 528.022 234.3C528.902 234.3 529.722 234.08 530.482 233.64C531.242 233.2 531.852 232.56 532.312 231.72C532.792 230.86 533.032 229.86 533.032 228.72ZM542.714 218.28C542.094 218.28 541.574 218.07 541.154 217.65C540.734 217.23 540.524 216.71 540.524 216.09C540.524 215.47 540.734 214.95 541.154 214.53C541.574 214.11 542.094 213.9 542.714 213.9C543.314 213.9 543.824 214.11 544.244 214.53C544.664 214.95 544.874 215.47 544.874 216.09C544.874 216.71 544.664 217.23 544.244 217.65C543.824 218.07 543.314 218.28 542.714 218.28ZM544.394 220.47V237H540.974V220.47H544.394ZM554.884 237.27C553.584 237.27 552.414 237.04 551.374 236.58C550.354 236.1 549.544 235.46 548.944 234.66C548.344 233.84 548.024 232.93 547.984 231.93H551.524C551.584 232.63 551.914 233.22 552.514 233.7C553.134 234.16 553.904 234.39 554.824 234.39C555.784 234.39 556.524 234.21 557.044 233.85C557.584 233.47 557.854 232.99 557.854 232.41C557.854 231.79 557.554 231.33 556.954 231.03C556.374 230.73 555.444 230.4 554.164 230.04C552.924 229.7 551.914 229.37 551.134 229.05C550.354 228.73 549.674 228.24 549.094 227.58C548.534 226.92 548.254 226.05 548.254 224.97C548.254 224.09 548.514 223.29 549.034 222.57C549.554 221.83 550.294 221.25 551.254 220.83C552.234 220.41 553.354 220.2 554.614 220.2C556.494 220.2 558.004 220.68 559.144 221.64C560.304 222.58 560.924 223.87 561.004 225.51H557.584C557.524 224.77 557.224 224.18 556.684 223.74C556.144 223.3 555.414 223.08 554.494 223.08C553.594 223.08 552.904 223.25 552.424 223.59C551.944 223.93 551.704 224.38 551.704 224.94C551.704 225.38 551.864 225.75 552.184 226.05C552.504 226.35 552.894 226.59 553.354 226.77C553.814 226.93 554.494 227.14 555.394 227.4C556.594 227.72 557.574 228.05 558.334 228.39C559.114 228.71 559.784 229.19 560.344 229.83C560.904 230.47 561.194 231.32 561.214 232.38C561.214 233.32 560.954 234.16 560.434 234.9C559.914 235.64 559.174 236.22 558.214 236.64C557.274 237.06 556.164 237.27 554.884 237.27ZM578.702 237.27C577.402 237.27 576.232 237.04 575.192 236.58C574.172 236.1 573.362 235.46 572.762 234.66C572.162 233.84 571.842 232.93 571.802 231.93H575.342C575.402 232.63 575.732 233.22 576.332 233.7C576.952 234.16 577.722 234.39 578.642 234.39C579.602 234.39 580.342 234.21 580.862 233.85C581.402 233.47 581.672 232.99 581.672 232.41C581.672 231.79 581.372 231.33 580.772 231.03C580.192 230.73 579.262 230.4 577.982 230.04C576.742 229.7 575.732 229.37 574.952 229.05C574.172 228.73 573.492 228.24 572.912 227.58C572.352 226.92 572.072 226.05 572.072 224.97C572.072 224.09 572.332 223.29 572.852 222.57C573.372 221.83 574.112 221.25 575.072 220.83C576.052 220.41 577.172 220.2 578.432 220.2C580.312 220.2 581.822 220.68 582.962 221.64C584.122 222.58 584.742 223.87 584.822 225.51H581.402C581.342 224.77 581.042 224.18 580.502 223.74C579.962 223.3 579.232 223.08 578.312 223.08C577.412 223.08 576.722 223.25 576.242 223.59C575.762 223.93 575.522 224.38 575.522 224.94C575.522 225.38 575.682 225.75 576.002 226.05C576.322 226.35 576.712 226.59 577.172 226.77C577.632 226.93 578.312 227.14 579.212 227.4C580.412 227.72 581.392 228.05 582.152 228.39C582.932 228.71 583.602 229.19 584.162 229.83C584.722 230.47 585.012 231.32 585.032 232.38C585.032 233.32 584.772 234.16 584.252 234.9C583.732 235.64 582.992 236.22 582.032 236.64C581.092 237.06 579.982 237.27 578.702 237.27ZM590.468 218.28C589.848 218.28 589.328 218.07 588.908 217.65C588.488 217.23 588.278 216.71 588.278 216.09C588.278 215.47 588.488 214.95 588.908 214.53C589.328 214.11 589.848 213.9 590.468 213.9C591.068 213.9 591.578 214.11 591.998 214.53C592.418 214.95 592.628 215.47 592.628 216.09C592.628 216.71 592.418 217.23 591.998 217.65C591.578 218.07 591.068 218.28 590.468 218.28ZM592.148 220.47V237H588.728V220.47H592.148ZM616.648 220.2C617.948 220.2 619.108 220.47 620.128 221.01C621.168 221.55 621.978 222.35 622.558 223.41C623.158 224.47 623.458 225.75 623.458 227.25V237H620.068V227.76C620.068 226.28 619.698 225.15 618.958 224.37C618.218 223.57 617.208 223.17 615.928 223.17C614.648 223.17 613.628 223.57 612.868 224.37C612.128 225.15 611.758 226.28 611.758 227.76V237H608.368V227.76C608.368 226.28 607.998 225.15 607.258 224.37C606.518 223.57 605.508 223.17 604.228 223.17C602.948 223.17 601.928 223.57 601.168 224.37C600.428 225.15 600.058 226.28 600.058 227.76V237H596.638V220.47H600.058V222.36C600.618 221.68 601.328 221.15 602.188 220.77C603.048 220.39 603.968 220.2 604.948 220.2C606.268 220.2 607.448 220.48 608.488 221.04C609.528 221.6 610.328 222.41 610.888 223.47C611.388 222.47 612.168 221.68 613.228 221.1C614.288 220.5 615.428 220.2 616.648 220.2ZM631.23 222.9C631.81 222.14 632.6 221.5 633.6 220.98C634.6 220.46 635.73 220.2 636.99 220.2C638.43 220.2 639.74 220.56 640.92 221.28C642.12 221.98 643.06 222.97 643.74 224.25C644.42 225.53 644.76 227 644.76 228.66C644.76 230.32 644.42 231.81 643.74 233.13C643.06 234.43 642.12 235.45 640.92 236.19C639.74 236.91 638.43 237.27 636.99 237.27C635.73 237.27 634.61 237.02 633.63 236.52C632.65 236 631.85 235.36 631.23 234.6V244.86H627.81V220.47H631.23V222.9ZM641.28 228.66C641.28 227.52 641.04 226.54 640.56 225.72C640.1 224.88 639.48 224.25 638.7 223.83C637.94 223.39 637.12 223.17 636.24 223.17C635.38 223.17 634.56 223.39 633.78 223.83C633.02 224.27 632.4 224.91 631.92 225.75C631.46 226.59 631.23 227.58 631.23 228.72C631.23 229.86 631.46 230.86 631.92 231.72C632.4 232.56 633.02 233.2 633.78 233.64C634.56 234.08 635.38 234.3 636.24 234.3C637.12 234.3 637.94 234.08 638.7 233.64C639.48 233.18 640.1 232.52 640.56 231.66C641.04 230.8 641.28 229.8 641.28 228.66ZM651.562 214.8V237H648.142V214.8H651.562ZM671.202 228.33C671.202 228.95 671.162 229.51 671.082 230.01H658.452C658.552 231.33 659.042 232.39 659.922 233.19C660.802 233.99 661.882 234.39 663.162 234.39C665.002 234.39 666.302 233.62 667.062 232.08H670.752C670.252 233.6 669.342 234.85 668.022 235.83C666.722 236.79 665.102 237.27 663.162 237.27C661.582 237.27 660.162 236.92 658.902 236.22C657.662 235.5 656.682 234.5 655.962 233.22C655.262 231.92 654.912 230.42 654.912 228.72C654.912 227.02 655.252 225.53 655.932 224.25C656.632 222.95 657.602 221.95 658.842 221.25C660.102 220.55 661.542 220.2 663.162 220.2C664.722 220.2 666.112 220.54 667.332 221.22C668.552 221.9 669.502 222.86 670.182 224.1C670.862 225.32 671.202 226.73 671.202 228.33ZM667.632 227.25C667.612 225.99 667.162 224.98 666.282 224.22C665.402 223.46 664.312 223.08 663.012 223.08C661.832 223.08 660.822 223.46 659.982 224.22C659.142 224.96 658.642 225.97 658.482 227.25H667.632ZM680.567 237.27C679.267 237.27 678.097 237.04 677.057 236.58C676.037 236.1 675.227 235.46 674.627 234.66C674.027 233.84 673.707 232.93 673.667 231.93H677.207C677.267 232.63 677.597 233.22 678.197 233.7C678.817 234.16 679.587 234.39 680.507 234.39C681.467 234.39 682.207 234.21 682.727 233.85C683.267 233.47 683.537 232.99 683.537 232.41C683.537 231.79 683.237 231.33 682.637 231.03C682.057 230.73 681.127 230.4 679.847 230.04C678.607 229.7 677.597 229.37 676.817 229.05C676.037 228.73 675.357 228.24 674.777 227.58C674.217 226.92 673.937 226.05 673.937 224.97C673.937 224.09 674.197 223.29 674.717 222.57C675.237 221.83 675.977 221.25 676.937 220.83C677.917 220.41 679.037 220.2 680.297 220.2C682.177 220.2 683.687 220.68 684.827 221.64C685.987 222.58 686.607 223.87 686.687 225.51H683.267C683.207 224.77 682.907 224.18 682.367 223.74C681.827 223.3 681.097 223.08 680.177 223.08C679.277 223.08 678.587 223.25 678.107 223.59C677.627 223.93 677.387 224.38 677.387 224.94C677.387 225.38 677.547 225.75 677.867 226.05C678.187 226.35 678.577 226.59 679.037 226.77C679.497 226.93 680.177 227.14 681.077 227.4C682.277 227.72 683.257 228.05 684.017 228.39C684.797 228.71 685.467 229.19 686.027 229.83C686.587 230.47 686.877 231.32 686.897 232.38C686.897 233.32 686.637 234.16 686.117 234.9C685.597 235.64 684.857 236.22 683.897 236.64C682.957 237.06 681.847 237.27 680.567 237.27ZM697.246 228.66C697.246 227 697.586 225.53 698.266 224.25C698.966 222.97 699.906 221.98 701.086 221.28C702.286 220.56 703.606 220.2 705.046 220.2C706.346 220.2 707.476 220.46 708.436 220.98C709.416 221.48 710.196 222.11 710.776 222.87V220.47H714.226V237H710.776V234.54C710.196 235.32 709.406 235.97 708.406 236.49C707.406 237.01 706.266 237.27 704.986 237.27C703.566 237.27 702.266 236.91 701.086 236.19C699.906 235.45 698.966 234.43 698.266 233.13C697.586 231.81 697.246 230.32 697.246 228.66ZM710.776 228.72C710.776 227.58 710.536 226.59 710.056 225.75C709.596 224.91 708.986 224.27 708.226 223.83C707.466 223.39 706.646 223.17 705.766 223.17C704.886 223.17 704.066 223.39 703.306 223.83C702.546 224.25 701.926 224.88 701.446 225.72C700.986 226.54 700.756 227.52 700.756 228.66C700.756 229.8 700.986 230.8 701.446 231.66C701.926 232.52 702.546 233.18 703.306 233.64C704.086 234.08 704.906 234.3 705.766 234.3C706.646 234.3 707.466 234.08 708.226 233.64C708.986 233.2 709.596 232.56 710.056 231.72C710.536 230.86 710.776 229.86 710.776 228.72ZM725.888 237.27C724.328 237.27 722.918 236.92 721.658 236.22C720.398 235.5 719.408 234.5 718.688 233.22C717.968 231.92 717.608 230.42 717.608 228.72C717.608 227.04 717.978 225.55 718.718 224.25C719.458 222.95 720.468 221.95 721.748 221.25C723.028 220.55 724.458 220.2 726.038 220.2C727.618 220.2 729.048 220.55 730.328 221.25C731.608 221.95 732.618 222.95 733.358 224.25C734.098 225.55 734.468 227.04 734.468 228.72C734.468 230.4 734.088 231.89 733.328 233.19C732.568 234.49 731.528 235.5 730.208 236.22C728.908 236.92 727.468 237.27 725.888 237.27ZM725.888 234.3C726.768 234.3 727.588 234.09 728.348 233.67C729.128 233.25 729.758 232.62 730.238 231.78C730.718 230.94 730.958 229.92 730.958 228.72C730.958 227.52 730.728 226.51 730.268 225.69C729.808 224.85 729.198 224.22 728.438 223.8C727.678 223.38 726.858 223.17 725.978 223.17C725.098 223.17 724.278 223.38 723.518 223.8C722.778 224.22 722.188 224.85 721.748 225.69C721.308 226.51 721.088 227.52 721.088 228.72C721.088 230.5 721.538 231.88 722.438 232.86C723.358 233.82 724.508 234.3 725.888 234.3ZM743.849 237.27C742.549 237.27 741.379 237.04 740.339 236.58C739.319 236.1 738.509 235.46 737.909 234.66C737.309 233.84 736.989 232.93 736.949 231.93H740.489C740.549 232.63 740.879 233.22 741.479 233.7C742.099 234.16 742.869 234.39 743.789 234.39C744.749 234.39 745.489 234.21 746.009 233.85C746.549 233.47 746.819 232.99 746.819 232.41C746.819 231.79 746.519 231.33 745.919 231.03C745.339 230.73 744.409 230.4 743.129 230.04C741.889 229.7 740.879 229.37 740.099 229.05C739.319 228.73 738.639 228.24 738.059 227.58C737.499 226.92 737.219 226.05 737.219 224.97C737.219 224.09 737.479 223.29 737.999 222.57C738.519 221.83 739.259 221.25 740.219 220.83C741.199 220.41 742.319 220.2 743.579 220.2C745.459 220.2 746.969 220.68 748.109 221.64C749.269 222.58 749.889 223.87 749.969 225.51H746.549C746.489 224.77 746.189 224.18 745.649 223.74C745.109 223.3 744.379 223.08 743.459 223.08C742.559 223.08 741.869 223.25 741.389 223.59C740.909 223.93 740.669 224.38 740.669 224.94C740.669 225.38 740.829 225.75 741.149 226.05C741.469 226.35 741.859 226.59 742.319 226.77C742.779 226.93 743.459 227.14 744.359 227.4C745.559 227.72 746.539 228.05 747.299 228.39C748.079 228.71 748.749 229.19 749.309 229.83C749.869 230.47 750.159 231.32 750.179 232.38C750.179 233.32 749.919 234.16 749.399 234.9C748.879 235.64 748.139 236.22 747.179 236.64C746.239 237.06 745.129 237.27 743.849 237.27ZM781.677 220.2C782.977 220.2 784.137 220.47 785.157 221.01C786.197 221.55 787.007 222.35 787.587 223.41C788.187 224.47 788.487 225.75 788.487 227.25V237H785.097V227.76C785.097 226.28 784.727 225.15 783.987 224.37C783.247 223.57 782.237 223.17 780.957 223.17C779.677 223.17 778.657 223.57 777.897 224.37C777.157 225.15 776.787 226.28 776.787 227.76V237H773.397V227.76C773.397 226.28 773.027 225.15 772.287 224.37C771.547 223.57 770.537 223.17 769.257 223.17C767.977 223.17 766.957 223.57 766.197 224.37C765.457 225.15 765.087 226.28 765.087 227.76V237H761.667V220.47H765.087V222.36C765.647 221.68 766.357 221.15 767.217 220.77C768.077 220.39 768.997 220.2 769.977 220.2C771.297 220.2 772.477 220.48 773.517 221.04C774.557 221.6 775.357 222.41 775.917 223.47C776.417 222.47 777.197 221.68 778.257 221.1C779.317 220.5 780.457 220.2 781.677 220.2ZM791.699 228.66C791.699 227 792.039 225.53 792.719 224.25C793.419 222.97 794.359 221.98 795.539 221.28C796.739 220.56 798.059 220.2 799.499 220.2C800.799 220.2 801.929 220.46 802.889 220.98C803.869 221.48 804.649 222.11 805.229 222.87V220.47H808.679V237H805.229V234.54C804.649 235.32 803.859 235.97 802.859 236.49C801.859 237.01 800.719 237.27 799.439 237.27C798.019 237.27 796.719 236.91 795.539 236.19C794.359 235.45 793.419 234.43 792.719 233.13C792.039 231.81 791.699 230.32 791.699 228.66ZM805.229 228.72C805.229 227.58 804.989 226.59 804.509 225.75C804.049 224.91 803.439 224.27 802.679 223.83C801.919 223.39 801.099 223.17 800.219 223.17C799.339 223.17 798.519 223.39 797.759 223.83C796.999 224.25 796.379 224.88 795.899 225.72C795.439 226.54 795.209 227.52 795.209 228.66C795.209 229.8 795.439 230.8 795.899 231.66C796.379 232.52 796.999 233.18 797.759 233.64C798.539 234.08 799.359 234.3 800.219 234.3C801.099 234.3 801.919 234.08 802.679 233.64C803.439 233.2 804.049 232.56 804.509 231.72C804.989 230.86 805.229 229.86 805.229 228.72ZM814.911 218.28C814.291 218.28 813.771 218.07 813.351 217.65C812.931 217.23 812.721 216.71 812.721 216.09C812.721 215.47 812.931 214.95 813.351 214.53C813.771 214.11 814.291 213.9 814.911 213.9C815.511 213.9 816.021 214.11 816.441 214.53C816.861 214.95 817.071 215.47 817.071 216.09C817.071 216.71 816.861 217.23 816.441 217.65C816.021 218.07 815.511 218.28 814.911 218.28ZM816.591 220.47V237H813.171V220.47H816.591ZM827.081 237.27C825.781 237.27 824.611 237.04 823.571 236.58C822.551 236.1 821.741 235.46 821.141 234.66C820.541 233.84 820.221 232.93 820.181 231.93H823.721C823.781 232.63 824.111 233.22 824.711 233.7C825.331 234.16 826.101 234.39 827.021 234.39C827.981 234.39 828.721 234.21 829.241 233.85C829.781 233.47 830.051 232.99 830.051 232.41C830.051 231.79 829.751 231.33 829.151 231.03C828.571 230.73 827.641 230.4 826.361 230.04C825.121 229.7 824.111 229.37 823.331 229.05C822.551 228.73 821.871 228.24 821.291 227.58C820.731 226.92 820.451 226.05 820.451 224.97C820.451 224.09 820.711 223.29 821.231 222.57C821.751 221.83 822.491 221.25 823.451 220.83C824.431 220.41 825.551 220.2 826.811 220.2C828.691 220.2 830.201 220.68 831.341 221.64C832.501 222.58 833.121 223.87 833.201 225.51H829.781C829.721 224.77 829.421 224.18 828.881 223.74C828.341 223.3 827.611 223.08 826.691 223.08C825.791 223.08 825.101 223.25 824.621 223.59C824.141 223.93 823.901 224.38 823.901 224.94C823.901 225.38 824.061 225.75 824.381 226.05C824.701 226.35 825.091 226.59 825.551 226.77C826.011 226.93 826.691 227.14 827.591 227.4C828.791 227.72 829.771 228.05 830.531 228.39C831.311 228.71 831.981 229.19 832.541 229.83C833.101 230.47 833.391 231.32 833.411 232.38C833.411 233.32 833.151 234.16 832.631 234.9C832.111 235.64 831.371 236.22 830.411 236.64C829.471 237.06 828.361 237.27 827.081 237.27ZM843.759 228.72C843.759 227.02 844.099 225.53 844.779 224.25C845.479 222.95 846.439 221.95 847.659 221.25C848.879 220.55 850.279 220.2 851.859 220.2C853.859 220.2 855.509 220.68 856.809 221.64C858.129 222.58 859.019 223.93 859.479 225.69H855.789C855.489 224.87 855.009 224.23 854.349 223.77C853.689 223.31 852.859 223.08 851.859 223.08C850.459 223.08 849.339 223.58 848.499 224.58C847.679 225.56 847.269 226.94 847.269 228.72C847.269 230.5 847.679 231.89 848.499 232.89C849.339 233.89 850.459 234.39 851.859 234.39C853.839 234.39 855.149 233.52 855.789 231.78H859.479C858.999 233.46 858.099 234.8 856.779 235.8C855.459 236.78 853.819 237.27 851.859 237.27C850.279 237.27 848.879 236.92 847.659 236.22C846.439 235.5 845.479 234.5 844.779 233.22C844.099 231.92 843.759 230.42 843.759 228.72ZM870.058 237.27C868.498 237.27 867.088 236.92 865.828 236.22C864.568 235.5 863.578 234.5 862.858 233.22C862.138 231.92 861.778 230.42 861.778 228.72C861.778 227.04 862.148 225.55 862.888 224.25C863.628 222.95 864.638 221.95 865.918 221.25C867.198 220.55 868.628 220.2 870.208 220.2C871.788 220.2 873.218 220.55 874.498 221.25C875.778 221.95 876.788 222.95 877.528 224.25C878.268 225.55 878.638 227.04 878.638 228.72C878.638 230.4 878.258 231.89 877.498 233.19C876.738 234.49 875.698 235.5 874.378 236.22C873.078 236.92 871.638 237.27 870.058 237.27ZM870.058 234.3C870.938 234.3 871.758 234.09 872.518 233.67C873.298 233.25 873.928 232.62 874.408 231.78C874.888 230.94 875.128 229.92 875.128 228.72C875.128 227.52 874.898 226.51 874.438 225.69C873.978 224.85 873.368 224.22 872.608 223.8C871.848 223.38 871.028 223.17 870.148 223.17C869.268 223.17 868.448 223.38 867.688 223.8C866.948 224.22 866.358 224.85 865.918 225.69C865.478 226.51 865.258 227.52 865.258 228.72C865.258 230.5 865.708 231.88 866.608 232.86C867.528 233.82 868.678 234.3 870.058 234.3ZM902.029 220.2C903.329 220.2 904.489 220.47 905.509 221.01C906.549 221.55 907.359 222.35 907.939 223.41C908.539 224.47 908.839 225.75 908.839 227.25V237H905.449V227.76C905.449 226.28 905.079 225.15 904.339 224.37C903.599 223.57 902.589 223.17 901.309 223.17C900.029 223.17 899.009 223.57 898.249 224.37C897.509 225.15 897.139 226.28 897.139 227.76V237H893.749V227.76C893.749 226.28 893.379 225.15 892.639 224.37C891.899 223.57 890.889 223.17 889.609 223.17C888.329 223.17 887.309 223.57 886.549 224.37C885.809 225.15 885.439 226.28 885.439 227.76V237H882.019V220.47H885.439V222.36C885.999 221.68 886.709 221.15 887.569 220.77C888.429 220.39 889.349 220.2 890.329 220.2C891.649 220.2 892.829 220.48 893.869 221.04C894.909 221.6 895.709 222.41 896.269 223.47C896.769 222.47 897.549 221.68 898.609 221.1C899.669 220.5 900.809 220.2 902.029 220.2ZM916.61 222.9C917.19 222.14 917.98 221.5 918.98 220.98C919.98 220.46 921.11 220.2 922.37 220.2C923.81 220.2 925.12 220.56 926.3 221.28C927.5 221.98 928.44 222.97 929.12 224.25C929.8 225.53 930.14 227 930.14 228.66C930.14 230.32 929.8 231.81 929.12 233.13C928.44 234.43 927.5 235.45 926.3 236.19C925.12 236.91 923.81 237.27 922.37 237.27C921.11 237.27 919.99 237.02 919.01 236.52C918.03 236 917.23 235.36 916.61 234.6V244.86H913.19V220.47H916.61V222.9ZM926.66 228.66C926.66 227.52 926.42 226.54 925.94 225.72C925.48 224.88 924.86 224.25 924.08 223.83C923.32 223.39 922.5 223.17 921.62 223.17C920.76 223.17 919.94 223.39 919.16 223.83C918.4 224.27 917.78 224.91 917.3 225.75C916.84 226.59 916.61 227.58 916.61 228.72C916.61 229.86 916.84 230.86 917.3 231.72C917.78 232.56 918.4 233.2 919.16 233.64C919.94 234.08 920.76 234.3 921.62 234.3C922.5 234.3 923.32 234.08 924.08 233.64C924.86 233.18 925.48 232.52 925.94 231.66C926.42 230.8 926.66 229.8 926.66 228.66ZM936.942 214.8V237H933.522V214.8H936.942ZM956.583 228.33C956.583 228.95 956.543 229.51 956.463 230.01H943.833C943.933 231.33 944.423 232.39 945.303 233.19C946.183 233.99 947.263 234.39 948.543 234.39C950.383 234.39 951.683 233.62 952.443 232.08H956.133C955.633 233.6 954.723 234.85 953.403 235.83C952.103 236.79 950.483 237.27 948.543 237.27C946.963 237.27 945.543 236.92 944.283 236.22C943.043 235.5 942.063 234.5 941.343 233.22C940.643 231.92 940.293 230.42 940.293 228.72C940.293 227.02 940.633 225.53 941.313 224.25C942.013 222.95 942.983 221.95 944.223 221.25C945.483 220.55 946.923 220.2 948.543 220.2C950.103 220.2 951.493 220.54 952.713 221.22C953.933 221.9 954.883 222.86 955.563 224.1C956.243 225.32 956.583 226.73 956.583 228.33ZM953.013 227.25C952.993 225.99 952.543 224.98 951.663 224.22C950.783 223.46 949.693 223.08 948.393 223.08C947.213 223.08 946.203 223.46 945.363 224.22C944.523 224.96 944.023 225.97 943.863 227.25H953.013ZM967.028 228.63L972.368 237H968.498L964.928 231.39L961.568 237H957.998L963.338 228.87L957.998 220.47H961.868L965.438 226.08L968.798 220.47H972.368L967.028 228.63ZM982.089 237.27C980.529 237.27 979.119 236.92 977.859 236.22C976.599 235.5 975.609 234.5 974.889 233.22C974.169 231.92 973.809 230.42 973.809 228.72C973.809 227.04 974.179 225.55 974.919 224.25C975.659 222.95 976.669 221.95 977.949 221.25C979.229 220.55 980.659 220.2 982.239 220.2C983.819 220.2 985.249 220.55 986.529 221.25C987.809 221.95 988.819 222.95 989.559 224.25C990.299 225.55 990.669 227.04 990.669 228.72C990.669 230.4 990.289 231.89 989.529 233.19C988.769 234.49 987.729 235.5 986.409 236.22C985.109 236.92 983.669 237.27 982.089 237.27ZM982.089 234.3C982.969 234.3 983.789 234.09 984.549 233.67C985.329 233.25 985.959 232.62 986.439 231.78C986.919 230.94 987.159 229.92 987.159 228.72C987.159 227.52 986.929 226.51 986.469 225.69C986.009 224.85 985.399 224.22 984.639 223.8C983.879 223.38 983.059 223.17 982.179 223.17C981.299 223.17 980.479 223.38 979.719 223.8C978.979 224.22 978.389 224.85 977.949 225.69C977.509 226.51 977.289 227.52 977.289 228.72C977.289 230.5 977.739 231.88 978.639 232.86C979.559 233.82 980.709 234.3 982.089 234.3ZM1000.05 237.27C998.75 237.27 997.58 237.04 996.54 236.58C995.52 236.1 994.71 235.46 994.11 234.66C993.51 233.84 993.19 232.93 993.15 231.93H996.69C996.75 232.63 997.08 233.22 997.68 233.7C998.3 234.16 999.07 234.39 999.99 234.39C1000.95 234.39 1001.69 234.21 1002.21 233.85C1002.75 233.47 1003.02 232.99 1003.02 232.41C1003.02 231.79 1002.72 231.33 1002.12 231.03C1001.54 230.73 1000.61 230.4 999.33 230.04C998.09 229.7 997.08 229.37 996.3 229.05C995.52 228.73 994.84 228.24 994.26 227.58C993.7 226.92 993.42 226.05 993.42 224.97C993.42 224.09 993.68 223.29 994.2 222.57C994.72 221.83 995.46 221.25 996.42 220.83C997.4 220.41 998.52 220.2 999.78 220.2C1001.66 220.2 1003.17 220.68 1004.31 221.64C1005.47 222.58 1006.09 223.87 1006.17 225.51H1002.75C1002.69 224.77 1002.39 224.18 1001.85 223.74C1001.31 223.3 1000.58 223.08 999.66 223.08C998.76 223.08 998.07 223.25 997.59 223.59C997.11 223.93 996.87 224.38 996.87 224.94C996.87 225.38 997.03 225.75 997.35 226.05C997.67 226.35 998.06 226.59 998.52 226.77C998.98 226.93 999.66 227.14 1000.56 227.4C1001.76 227.72 1002.74 228.05 1003.5 228.39C1004.28 228.71 1004.95 229.19 1005.51 229.83C1006.07 230.47 1006.36 231.32 1006.38 232.38C1006.38 233.32 1006.12 234.16 1005.6 234.9C1005.08 235.64 1004.34 236.22 1003.38 236.64C1002.44 237.06 1001.33 237.27 1000.05 237.27ZM1011.46 237.21C1010.84 237.21 1010.32 237 1009.9 236.58C1009.48 236.16 1009.27 235.64 1009.27 235.02C1009.27 234.4 1009.48 233.88 1009.9 233.46C1010.32 233.04 1010.84 232.83 1011.46 232.83C1012.06 232.83 1012.57 233.04 1012.99 233.46C1013.41 233.88 1013.62 234.4 1013.62 235.02C1013.62 235.64 1013.41 236.16 1012.99 236.58C1012.57 237 1012.06 237.21 1011.46 237.21Z" fill="#022B3E"/>
<path d="M470.998 185.65C470.998 186.417 470.948 187.183 470.848 187.95H452.298C452.398 189.483 452.815 190.633 453.548 191.4C454.315 192.133 455.282 192.5 456.448 192.5C458.082 192.5 459.248 191.767 459.948 190.3H470.398C469.965 192.233 469.115 193.967 467.848 195.5C466.615 197 465.048 198.183 463.148 199.05C461.248 199.917 459.148 200.35 456.848 200.35C454.082 200.35 451.615 199.767 449.448 198.6C447.315 197.433 445.632 195.767 444.398 193.6C443.198 191.433 442.598 188.883 442.598 185.95C442.598 183.017 443.198 180.483 444.398 178.35C445.598 176.183 447.265 174.517 449.398 173.35C451.565 172.183 454.048 171.6 456.848 171.6C459.615 171.6 462.065 172.167 464.198 173.3C466.332 174.433 467.998 176.067 469.198 178.2C470.398 180.3 470.998 182.783 470.998 185.65ZM460.998 183.2C460.998 182 460.598 181.067 459.798 180.4C458.998 179.7 457.998 179.35 456.798 179.35C455.598 179.35 454.615 179.683 453.848 180.35C453.082 180.983 452.582 181.933 452.348 183.2H460.998ZM492.509 200L487.459 192.95L483.459 200H472.709L482.059 185.45L472.309 171.95H483.309L488.359 179L492.409 171.95H503.159L493.609 186.25L503.509 200H492.509ZM504.805 185.95C504.805 183.05 505.322 180.517 506.355 178.35C507.422 176.183 508.855 174.517 510.655 173.35C512.489 172.183 514.522 171.6 516.755 171.6C518.689 171.6 520.355 171.983 521.755 172.75C523.155 173.517 524.239 174.55 525.005 175.85V171.95H534.805V200H525.005V196.1C524.239 197.4 523.139 198.433 521.705 199.2C520.305 199.967 518.655 200.35 516.755 200.35C514.522 200.35 512.489 199.767 510.655 198.6C508.855 197.433 507.422 195.767 506.355 193.6C505.322 191.4 504.805 188.85 504.805 185.95ZM525.005 185.95C525.005 184.15 524.505 182.733 523.505 181.7C522.539 180.667 521.339 180.15 519.905 180.15C518.439 180.15 517.222 180.667 516.255 181.7C515.289 182.7 514.805 184.117 514.805 185.95C514.805 187.75 515.289 189.183 516.255 190.25C517.222 191.283 518.439 191.8 519.905 191.8C521.339 191.8 522.539 191.283 523.505 190.25C524.505 189.217 525.005 187.783 525.005 185.95ZM577.04 171.7C580.573 171.7 583.34 172.767 585.34 174.9C587.373 177.033 588.39 179.95 588.39 183.65V200H578.59V184.95C578.59 183.45 578.173 182.283 577.34 181.45C576.507 180.617 575.373 180.2 573.94 180.2C572.507 180.2 571.373 180.617 570.54 181.45C569.707 182.283 569.29 183.45 569.29 184.95V200H559.49V184.95C559.49 183.45 559.073 182.283 558.24 181.45C557.44 180.617 556.323 180.2 554.89 180.2C553.423 180.2 552.273 180.617 551.44 181.45C550.607 182.283 550.19 183.45 550.19 184.95V200H540.39V171.95H550.19V175.65C551.057 174.45 552.173 173.5 553.54 172.8C554.94 172.067 556.54 171.7 558.34 171.7C560.407 171.7 562.24 172.15 563.84 173.05C565.473 173.95 566.757 175.217 567.69 176.85C568.69 175.317 570.007 174.083 571.64 173.15C573.273 172.183 575.073 171.7 577.04 171.7ZM620.559 185.65C620.559 186.417 620.509 187.183 620.409 187.95H601.859C601.959 189.483 602.376 190.633 603.109 191.4C603.876 192.133 604.842 192.5 606.009 192.5C607.642 192.5 608.809 191.767 609.509 190.3H619.959C619.526 192.233 618.676 193.967 617.409 195.5C616.176 197 614.609 198.183 612.709 199.05C610.809 199.917 608.709 200.35 606.409 200.35C603.642 200.35 601.176 199.767 599.009 198.6C596.876 197.433 595.192 195.767 593.959 193.6C592.759 191.433 592.159 188.883 592.159 185.95C592.159 183.017 592.759 180.483 593.959 178.35C595.159 176.183 596.826 174.517 598.959 173.35C601.126 172.183 603.609 171.6 606.409 171.6C609.176 171.6 611.626 172.167 613.759 173.3C615.892 174.433 617.559 176.067 618.759 178.2C619.959 180.3 620.559 182.783 620.559 185.65ZM610.559 183.2C610.559 182 610.159 181.067 609.359 180.4C608.559 179.7 607.559 179.35 606.359 179.35C605.159 179.35 604.176 179.683 603.409 180.35C602.642 180.983 602.142 181.933 601.909 183.2H610.559ZM636.52 200.35C633.986 200.35 631.72 199.933 629.72 199.1C627.753 198.233 626.186 197.067 625.02 195.6C623.886 194.1 623.253 192.417 623.12 190.55H632.62C632.753 191.45 633.17 192.15 633.87 192.65C634.57 193.15 635.436 193.4 636.47 193.4C637.27 193.4 637.903 193.233 638.37 192.9C638.836 192.567 639.07 192.133 639.07 191.6C639.07 190.9 638.686 190.383 637.92 190.05C637.153 189.717 635.886 189.35 634.12 188.95C632.12 188.55 630.453 188.1 629.12 187.6C627.786 187.1 626.62 186.283 625.62 185.15C624.653 184.017 624.17 182.483 624.17 180.55C624.17 178.883 624.62 177.383 625.52 176.05C626.42 174.683 627.736 173.6 629.47 172.8C631.236 172 633.353 171.6 635.82 171.6C639.486 171.6 642.37 172.5 644.47 174.3C646.57 176.1 647.786 178.467 648.12 181.4H639.27C639.103 180.5 638.703 179.817 638.07 179.35C637.47 178.85 636.653 178.6 635.62 178.6C634.82 178.6 634.203 178.75 633.77 179.05C633.37 179.35 633.17 179.767 633.17 180.3C633.17 180.967 633.553 181.483 634.32 181.85C635.086 182.183 636.32 182.533 638.02 182.9C640.053 183.333 641.736 183.817 643.07 184.35C644.436 184.883 645.62 185.75 646.62 186.95C647.653 188.117 648.17 189.717 648.17 191.75C648.17 193.383 647.686 194.85 646.72 196.15C645.786 197.45 644.436 198.483 642.67 199.25C640.936 199.983 638.886 200.35 636.52 200.35ZM672.358 163V200H662.558V163H672.358ZM676.339 185.95C676.339 183.05 676.855 180.517 677.889 178.35C678.955 176.183 680.389 174.517 682.189 173.35C684.022 172.183 686.055 171.6 688.289 171.6C690.222 171.6 691.889 171.983 693.289 172.75C694.689 173.517 695.772 174.55 696.539 175.85V171.95H706.339V200H696.539V196.1C695.772 197.4 694.672 198.433 693.239 199.2C691.839 199.967 690.189 200.35 688.289 200.35C686.055 200.35 684.022 199.767 682.189 198.6C680.389 197.433 678.955 195.767 677.889 193.6C676.855 191.4 676.339 188.85 676.339 185.95ZM696.539 185.95C696.539 184.15 696.039 182.733 695.039 181.7C694.072 180.667 692.872 180.15 691.439 180.15C689.972 180.15 688.755 180.667 687.789 181.7C686.822 182.7 686.339 184.117 686.339 185.95C686.339 187.75 686.822 189.183 687.789 190.25C688.755 191.283 689.972 191.8 691.439 191.8C692.872 191.8 694.072 191.283 695.039 190.25C696.039 189.217 696.539 187.783 696.539 185.95ZM721.723 175.85C722.49 174.517 723.573 173.483 724.973 172.75C726.373 171.983 728.023 171.6 729.923 171.6C732.156 171.6 734.173 172.183 735.973 173.35C737.806 174.517 739.24 176.183 740.273 178.35C741.34 180.517 741.873 183.05 741.873 185.95C741.873 188.85 741.34 191.4 740.273 193.6C739.24 195.767 737.806 197.433 735.973 198.6C734.173 199.767 732.156 200.35 729.923 200.35C728.023 200.35 726.373 199.983 724.973 199.25C723.573 198.483 722.49 197.433 721.723 196.1V200H711.923V163H721.723V175.85ZM731.923 185.95C731.923 184.117 731.423 182.7 730.423 181.7C729.456 180.667 728.256 180.15 726.823 180.15C725.39 180.15 724.173 180.667 723.173 181.7C722.206 182.733 721.723 184.15 721.723 185.95C721.723 187.783 722.206 189.217 723.173 190.25C724.173 191.283 725.39 191.8 726.823 191.8C728.256 191.8 729.456 191.283 730.423 190.25C731.423 189.183 731.923 187.75 731.923 185.95ZM758.957 200.35C756.157 200.35 753.641 199.767 751.407 198.6C749.207 197.433 747.474 195.767 746.207 193.6C744.941 191.433 744.307 188.883 744.307 185.95C744.307 183.05 744.941 180.517 746.207 178.35C747.507 176.183 749.257 174.517 751.457 173.35C753.691 172.183 756.207 171.6 759.007 171.6C761.807 171.6 764.307 172.183 766.507 173.35C768.741 174.517 770.491 176.183 771.757 178.35C773.057 180.517 773.707 183.05 773.707 185.95C773.707 188.85 773.057 191.4 771.757 193.6C770.491 195.767 768.741 197.433 766.507 198.6C764.274 199.767 761.757 200.35 758.957 200.35ZM758.957 191.85C760.324 191.85 761.457 191.35 762.357 190.35C763.291 189.317 763.757 187.85 763.757 185.95C763.757 184.05 763.291 182.6 762.357 181.6C761.457 180.6 760.341 180.1 759.007 180.1C757.674 180.1 756.557 180.6 755.657 181.6C754.757 182.6 754.307 184.05 754.307 185.95C754.307 187.883 754.741 189.35 755.607 190.35C756.474 191.35 757.591 191.85 758.957 191.85ZM787.495 176.9C788.595 175.3 789.928 174.033 791.495 173.1C793.061 172.167 794.745 171.7 796.545 171.7V182.15H793.795C791.661 182.15 790.078 182.567 789.045 183.4C788.011 184.233 787.495 185.683 787.495 187.75V200H777.695V171.95H787.495V176.9ZM798.458 185.95C798.458 183.05 798.974 180.517 800.008 178.35C801.074 176.183 802.508 174.517 804.308 173.35C806.141 172.183 808.174 171.6 810.408 171.6C812.341 171.6 814.008 171.983 815.408 172.75C816.808 173.517 817.891 174.55 818.658 175.85V171.95H828.458V200H818.658V196.1C817.891 197.4 816.791 198.433 815.358 199.2C813.958 199.967 812.308 200.35 810.408 200.35C808.174 200.35 806.141 199.767 804.308 198.6C802.508 197.433 801.074 195.767 800.008 193.6C798.974 191.4 798.458 188.85 798.458 185.95ZM818.658 185.95C818.658 184.15 818.158 182.733 817.158 181.7C816.191 180.667 814.991 180.15 813.558 180.15C812.091 180.15 810.874 180.667 809.908 181.7C808.941 182.7 808.458 184.117 808.458 185.95C808.458 187.75 808.941 189.183 809.908 190.25C810.874 191.283 812.091 191.8 813.558 191.8C814.991 191.8 816.191 191.283 817.158 190.25C818.158 189.217 818.658 187.783 818.658 185.95ZM850.592 191.65V200H846.342C839.176 200 835.592 196.45 835.592 189.35V180.1H832.142V171.95H835.592V165.15H845.442V171.95H850.542V180.1H845.442V189.5C845.442 190.267 845.609 190.817 845.942 191.15C846.309 191.483 846.909 191.65 847.742 191.65H850.592ZM868.137 200.35C865.337 200.35 862.82 199.767 860.587 198.6C858.387 197.433 856.654 195.767 855.387 193.6C854.12 191.433 853.487 188.883 853.487 185.95C853.487 183.05 854.12 180.517 855.387 178.35C856.687 176.183 858.437 174.517 860.637 173.35C862.87 172.183 865.387 171.6 868.187 171.6C870.987 171.6 873.487 172.183 875.687 173.35C877.92 174.517 879.67 176.183 880.937 178.35C882.237 180.517 882.887 183.05 882.887 185.95C882.887 188.85 882.237 191.4 880.937 193.6C879.67 195.767 877.92 197.433 875.687 198.6C873.454 199.767 870.937 200.35 868.137 200.35ZM868.137 191.85C869.504 191.85 870.637 191.35 871.537 190.35C872.47 189.317 872.937 187.85 872.937 185.95C872.937 184.05 872.47 182.6 871.537 181.6C870.637 180.6 869.52 180.1 868.187 180.1C866.854 180.1 865.737 180.6 864.837 181.6C863.937 182.6 863.487 184.05 863.487 185.95C863.487 187.883 863.92 189.35 864.787 190.35C865.654 191.35 866.77 191.85 868.137 191.85ZM896.674 176.9C897.774 175.3 899.108 174.033 900.674 173.1C902.241 172.167 903.924 171.7 905.724 171.7V182.15H902.974C900.841 182.15 899.258 182.567 898.224 183.4C897.191 184.233 896.674 185.683 896.674 187.75V200H886.874V171.95H896.674V176.9ZM914.188 169.35C912.454 169.35 911.054 168.883 909.988 167.95C908.954 166.983 908.438 165.783 908.438 164.35C908.438 162.883 908.954 161.667 909.988 160.7C911.054 159.733 912.454 159.25 914.188 159.25C915.888 159.25 917.254 159.733 918.288 160.7C919.354 161.667 919.888 162.883 919.888 164.35C919.888 165.783 919.354 166.983 918.288 167.95C917.254 168.883 915.888 169.35 914.188 169.35ZM919.038 171.95V200H909.238V171.95H919.038ZM923.018 185.95C923.018 183.05 923.535 180.517 924.568 178.35C925.635 176.183 927.068 174.517 928.868 173.35C930.702 172.183 932.735 171.6 934.968 171.6C936.902 171.6 938.568 171.983 939.968 172.75C941.368 173.517 942.452 174.55 943.218 175.85V171.95H953.018V200H943.218V196.1C942.452 197.4 941.352 198.433 939.918 199.2C938.518 199.967 936.868 200.35 934.968 200.35C932.735 200.35 930.702 199.767 928.868 198.6C927.068 197.433 925.635 195.767 924.568 193.6C923.535 191.4 923.018 188.85 923.018 185.95ZM943.218 185.95C943.218 184.15 942.718 182.733 941.718 181.7C940.752 180.667 939.552 180.15 938.118 180.15C936.652 180.15 935.435 180.667 934.468 181.7C933.502 182.7 933.018 184.117 933.018 185.95C933.018 187.75 933.502 189.183 934.468 190.25C935.435 191.283 936.652 191.8 938.118 191.8C939.552 191.8 940.752 191.283 941.718 190.25C942.718 189.217 943.218 187.783 943.218 185.95ZM963.553 169.35C961.819 169.35 960.419 168.883 959.353 167.95C958.319 166.983 957.803 165.783 957.803 164.35C957.803 162.883 958.319 161.667 959.353 160.7C960.419 159.733 961.819 159.25 963.553 159.25C965.253 159.25 966.619 159.733 967.653 160.7C968.719 161.667 969.253 162.883 969.253 164.35C969.253 165.783 968.719 166.983 967.653 167.95C966.619 168.883 965.253 169.35 963.553 169.35ZM968.403 171.95V200H958.603V171.95H968.403ZM985.934 200.35C983.4 200.35 981.134 199.933 979.134 199.1C977.167 198.233 975.6 197.067 974.434 195.6C973.3 194.1 972.667 192.417 972.534 190.55H982.034C982.167 191.45 982.584 192.15 983.284 192.65C983.984 193.15 984.85 193.4 985.884 193.4C986.684 193.4 987.317 193.233 987.784 192.9C988.25 192.567 988.484 192.133 988.484 191.6C988.484 190.9 988.1 190.383 987.334 190.05C986.567 189.717 985.3 189.35 983.534 188.95C981.534 188.55 979.867 188.1 978.534 187.6C977.2 187.1 976.034 186.283 975.034 185.15C974.067 184.017 973.584 182.483 973.584 180.55C973.584 178.883 974.034 177.383 974.934 176.05C975.834 174.683 977.15 173.6 978.884 172.8C980.65 172 982.767 171.6 985.234 171.6C988.9 171.6 991.784 172.5 993.884 174.3C995.984 176.1 997.2 178.467 997.534 181.4H988.684C988.517 180.5 988.117 179.817 987.484 179.35C986.884 178.85 986.067 178.6 985.034 178.6C984.234 178.6 983.617 178.75 983.184 179.05C982.784 179.35 982.584 179.767 982.584 180.3C982.584 180.967 982.967 181.483 983.734 181.85C984.5 182.183 985.734 182.533 987.434 182.9C989.467 183.333 991.15 183.817 992.484 184.35C993.85 184.883 995.034 185.75 996.034 186.95C997.067 188.117 997.584 189.717 997.584 191.75C997.584 193.383 997.1 194.85 996.134 196.15C995.2 197.45 993.85 198.483 992.084 199.25C990.35 199.983 988.3 200.35 985.934 200.35Z" fill="white"/>
</svg>
