<svg width="1440" height="400" viewBox="0 0 1440 400" fill="none" xmlns="http://www.w3.org/2000/svg">
<rect width="1440" height="400" fill="#022B3E"/>
<path d="M565.477 221.33C565.477 221.95 565.437 222.51 565.357 223.01H552.727C552.827 224.33 553.317 225.39 554.197 226.19C555.077 226.99 556.157 227.39 557.437 227.39C559.277 227.39 560.577 226.62 561.337 225.08H565.027C564.527 226.6 563.617 227.85 562.297 228.83C560.997 229.79 559.377 230.27 557.437 230.27C555.857 230.27 554.437 229.92 553.177 229.22C551.937 228.5 550.957 227.5 550.237 226.22C549.537 224.92 549.187 223.42 549.187 221.72C549.187 220.02 549.527 218.53 550.207 217.25C550.907 215.95 551.877 214.95 553.117 214.25C554.377 213.55 555.817 213.2 557.437 213.2C558.997 213.2 560.387 213.54 561.607 214.22C562.827 214.9 563.777 215.86 564.457 217.1C565.137 218.32 565.477 219.73 565.477 221.33ZM561.907 220.25C561.887 218.99 561.437 217.98 560.557 217.22C559.677 216.46 558.587 216.08 557.287 216.08C556.107 216.08 555.097 216.46 554.257 217.22C553.417 217.96 552.917 218.97 552.757 220.25H561.907ZM588.853 213.2C590.153 213.2 591.313 213.47 592.333 214.01C593.373 214.55 594.183 215.35 594.763 216.41C595.363 217.47 595.663 218.75 595.663 220.25V230H592.273V220.76C592.273 219.28 591.903 218.15 591.163 217.37C590.423 216.57 589.413 216.17 588.133 216.17C586.853 216.17 585.833 216.57 585.073 217.37C584.333 218.15 583.963 219.28 583.963 220.76V230H580.573V220.76C580.573 219.28 580.203 218.15 579.463 217.37C578.723 216.57 577.713 216.17 576.433 216.17C575.153 216.17 574.133 216.57 573.373 217.37C572.633 218.15 572.263 219.28 572.263 220.76V230H568.843V213.47H572.263V215.36C572.823 214.68 573.533 214.15 574.393 213.77C575.253 213.39 576.173 213.2 577.153 213.2C578.473 213.2 579.653 213.48 580.693 214.04C581.733 214.6 582.533 215.41 583.093 216.47C583.593 215.47 584.373 214.68 585.433 214.1C586.493 213.5 587.633 213.2 588.853 213.2ZM606.668 221.72C606.668 220.02 607.008 218.53 607.688 217.25C608.388 215.95 609.348 214.95 610.568 214.25C611.788 213.55 613.188 213.2 614.768 213.2C616.768 213.2 618.418 213.68 619.718 214.64C621.038 215.58 621.928 216.93 622.388 218.69H618.698C618.398 217.87 617.918 217.23 617.258 216.77C616.598 216.31 615.768 216.08 614.768 216.08C613.368 216.08 612.248 216.58 611.408 217.58C610.588 218.56 610.178 219.94 610.178 221.72C610.178 223.5 610.588 224.89 611.408 225.89C612.248 226.89 613.368 227.39 614.768 227.39C616.748 227.39 618.058 226.52 618.698 224.78H622.388C621.908 226.46 621.008 227.8 619.688 228.8C618.368 229.78 616.728 230.27 614.768 230.27C613.188 230.27 611.788 229.92 610.568 229.22C609.348 228.5 608.388 227.5 607.688 226.22C607.008 224.92 606.668 223.42 606.668 221.72ZM640.766 213.47V230H637.346V228.05C636.806 228.73 636.096 229.27 635.216 229.67C634.356 230.05 633.436 230.24 632.456 230.24C631.156 230.24 629.986 229.97 628.946 229.43C627.926 228.89 627.116 228.09 626.516 227.03C625.936 225.97 625.646 224.69 625.646 223.19V213.47H629.036V222.68C629.036 224.16 629.406 225.3 630.146 226.1C630.886 226.88 631.896 227.27 633.176 227.27C634.456 227.27 635.466 226.88 636.206 226.1C636.966 225.3 637.346 224.16 637.346 222.68V213.47H640.766ZM647.018 211.28C646.398 211.28 645.878 211.07 645.458 210.65C645.038 210.23 644.828 209.71 644.828 209.09C644.828 208.47 645.038 207.95 645.458 207.53C645.878 207.11 646.398 206.9 647.018 206.9C647.618 206.9 648.128 207.11 648.548 207.53C648.968 207.95 649.178 208.47 649.178 209.09C649.178 209.71 648.968 210.23 648.548 210.65C648.128 211.07 647.618 211.28 647.018 211.28ZM648.698 213.47V230H645.278V213.47H648.698ZM652.048 221.66C652.048 220 652.388 218.53 653.068 217.25C653.768 215.97 654.708 214.98 655.888 214.28C657.088 213.56 658.418 213.2 659.878 213.2C660.958 213.2 662.018 213.44 663.058 213.92C664.118 214.38 664.958 215 665.578 215.78V207.8H669.028V230H665.578V227.51C665.018 228.31 664.238 228.97 663.238 229.49C662.258 230.01 661.128 230.27 659.848 230.27C658.408 230.27 657.088 229.91 655.888 229.19C654.708 228.45 653.768 227.43 653.068 226.13C652.388 224.81 652.048 223.32 652.048 221.66ZM665.578 221.72C665.578 220.58 665.338 219.59 664.858 218.75C664.398 217.91 663.788 217.27 663.028 216.83C662.268 216.39 661.448 216.17 660.568 216.17C659.688 216.17 658.868 216.39 658.108 216.83C657.348 217.25 656.728 217.88 656.248 218.72C655.788 219.54 655.558 220.52 655.558 221.66C655.558 222.8 655.788 223.8 656.248 224.66C656.728 225.52 657.348 226.18 658.108 226.64C658.888 227.08 659.708 227.3 660.568 227.3C661.448 227.3 662.268 227.08 663.028 226.64C663.788 226.2 664.398 225.56 664.858 224.72C665.338 223.86 665.578 222.86 665.578 221.72ZM672.381 221.66C672.381 220 672.721 218.53 673.401 217.25C674.101 215.97 675.041 214.98 676.221 214.28C677.421 213.56 678.741 213.2 680.181 213.2C681.481 213.2 682.611 213.46 683.571 213.98C684.551 214.48 685.331 215.11 685.911 215.87V213.47H689.361V230H685.911V227.54C685.331 228.32 684.541 228.97 683.541 229.49C682.541 230.01 681.401 230.27 680.121 230.27C678.701 230.27 677.401 229.91 676.221 229.19C675.041 228.45 674.101 227.43 673.401 226.13C672.721 224.81 672.381 223.32 672.381 221.66ZM685.911 221.72C685.911 220.58 685.671 219.59 685.191 218.75C684.731 217.91 684.121 217.27 683.361 216.83C682.601 216.39 681.781 216.17 680.901 216.17C680.021 216.17 679.201 216.39 678.441 216.83C677.681 217.25 677.061 217.88 676.581 218.72C676.121 219.54 675.891 220.52 675.891 221.66C675.891 222.8 676.121 223.8 676.581 224.66C677.061 225.52 677.681 226.18 678.441 226.64C679.221 227.08 680.041 227.3 680.901 227.3C681.781 227.3 682.601 227.08 683.361 226.64C684.121 226.2 684.731 225.56 685.191 224.72C685.671 223.86 685.911 222.86 685.911 221.72ZM697.273 215.87C697.773 215.03 698.433 214.38 699.253 213.92C700.093 213.44 701.083 213.2 702.223 213.2V216.74H701.353C700.013 216.74 698.993 217.08 698.293 217.76C697.613 218.44 697.273 219.62 697.273 221.3V230H693.853V213.47H697.273V215.87ZM712.019 221.66C712.019 220 712.359 218.53 713.039 217.25C713.739 215.97 714.679 214.98 715.859 214.28C717.059 213.56 718.389 213.2 719.849 213.2C720.929 213.2 721.989 213.44 723.029 213.92C724.089 214.38 724.929 215 725.549 215.78V207.8H728.999V230H725.549V227.51C724.989 228.31 724.209 228.97 723.209 229.49C722.229 230.01 721.099 230.27 719.819 230.27C718.379 230.27 717.059 229.91 715.859 229.19C714.679 228.45 713.739 227.43 713.039 226.13C712.359 224.81 712.019 223.32 712.019 221.66ZM725.549 221.72C725.549 220.58 725.309 219.59 724.829 218.75C724.369 217.91 723.759 217.27 722.999 216.83C722.239 216.39 721.419 216.17 720.539 216.17C719.659 216.17 718.839 216.39 718.079 216.83C717.319 217.25 716.699 217.88 716.219 218.72C715.759 219.54 715.529 220.52 715.529 221.66C715.529 222.8 715.759 223.8 716.219 224.66C716.699 225.52 717.319 226.18 718.079 226.64C718.859 227.08 719.679 227.3 720.539 227.3C721.419 227.3 722.239 227.08 722.999 226.64C723.759 226.2 724.369 225.56 724.829 224.72C725.309 223.86 725.549 222.86 725.549 221.72ZM732.351 221.66C732.351 220 732.691 218.53 733.371 217.25C734.071 215.97 735.011 214.98 736.191 214.28C737.391 213.56 738.711 213.2 740.151 213.2C741.451 213.2 742.581 213.46 743.541 213.98C744.521 214.48 745.301 215.11 745.881 215.87V213.47H749.331V230H745.881V227.54C745.301 228.32 744.511 228.97 743.511 229.49C742.511 230.01 741.371 230.27 740.091 230.27C738.671 230.27 737.371 229.91 736.191 229.19C735.011 228.45 734.071 227.43 733.371 226.13C732.691 224.81 732.351 223.32 732.351 221.66ZM745.881 221.72C745.881 220.58 745.641 219.59 745.161 218.75C744.701 217.91 744.091 217.27 743.331 216.83C742.571 216.39 741.751 216.17 740.871 216.17C739.991 216.17 739.171 216.39 738.411 216.83C737.651 217.25 737.031 217.88 736.551 218.72C736.091 219.54 735.861 220.52 735.861 221.66C735.861 222.8 736.091 223.8 736.551 224.66C737.031 225.52 737.651 226.18 738.411 226.64C739.191 227.08 740.011 227.3 740.871 227.3C741.751 227.3 742.571 227.08 743.331 226.64C744.091 226.2 744.701 225.56 745.161 224.72C745.641 223.86 745.881 222.86 745.881 221.72ZM767.616 230.27C766.316 230.27 765.146 230.04 764.106 229.58C763.086 229.1 762.276 228.46 761.676 227.66C761.076 226.84 760.756 225.93 760.716 224.93H764.256C764.316 225.63 764.646 226.22 765.246 226.7C765.866 227.16 766.636 227.39 767.556 227.39C768.516 227.39 769.256 227.21 769.776 226.85C770.316 226.47 770.586 225.99 770.586 225.41C770.586 224.79 770.286 224.33 769.686 224.03C769.106 223.73 768.176 223.4 766.896 223.04C765.656 222.7 764.646 222.37 763.866 222.05C763.086 221.73 762.406 221.24 761.826 220.58C761.266 219.92 760.986 219.05 760.986 217.97C760.986 217.09 761.246 216.29 761.766 215.57C762.286 214.83 763.026 214.25 763.986 213.83C764.966 213.41 766.086 213.2 767.346 213.2C769.226 213.2 770.736 213.68 771.876 214.64C773.036 215.58 773.656 216.87 773.736 218.51H770.316C770.256 217.77 769.956 217.18 769.416 216.74C768.876 216.3 768.146 216.08 767.226 216.08C766.326 216.08 765.636 216.25 765.156 216.59C764.676 216.93 764.436 217.38 764.436 217.94C764.436 218.38 764.596 218.75 764.916 219.05C765.236 219.35 765.626 219.59 766.086 219.77C766.546 219.93 767.226 220.14 768.126 220.4C769.326 220.72 770.306 221.05 771.066 221.39C771.846 221.71 772.516 222.19 773.076 222.83C773.636 223.47 773.926 224.32 773.946 225.38C773.946 226.32 773.686 227.16 773.166 227.9C772.646 228.64 771.906 229.22 770.946 229.64C770.006 230.06 768.896 230.27 767.616 230.27ZM792.612 213.47V230H789.192V228.05C788.652 228.73 787.942 229.27 787.062 229.67C786.202 230.05 785.282 230.24 784.302 230.24C783.002 230.24 781.832 229.97 780.792 229.43C779.772 228.89 778.962 228.09 778.362 227.03C777.782 225.97 777.492 224.69 777.492 223.19V213.47H780.882V222.68C780.882 224.16 781.252 225.3 781.992 226.1C782.732 226.88 783.742 227.27 785.022 227.27C786.302 227.27 787.312 226.88 788.052 226.1C788.812 225.3 789.192 224.16 789.192 222.68V213.47H792.612ZM795.984 221.66C795.984 220 796.324 218.53 797.004 217.25C797.704 215.97 798.644 214.98 799.824 214.28C801.024 213.56 802.344 213.2 803.784 213.2C805.084 213.2 806.214 213.46 807.174 213.98C808.154 214.48 808.934 215.11 809.514 215.87V213.47H812.964V230H809.514V227.54C808.934 228.32 808.144 228.97 807.144 229.49C806.144 230.01 805.004 230.27 803.724 230.27C802.304 230.27 801.004 229.91 799.824 229.19C798.644 228.45 797.704 227.43 797.004 226.13C796.324 224.81 795.984 223.32 795.984 221.66ZM809.514 221.72C809.514 220.58 809.274 219.59 808.794 218.75C808.334 217.91 807.724 217.27 806.964 216.83C806.204 216.39 805.384 216.17 804.504 216.17C803.624 216.17 802.804 216.39 802.044 216.83C801.284 217.25 800.664 217.88 800.184 218.72C799.724 219.54 799.494 220.52 799.494 221.66C799.494 222.8 799.724 223.8 800.184 224.66C800.664 225.52 801.284 226.18 802.044 226.64C802.824 227.08 803.644 227.3 804.504 227.3C805.384 227.3 806.204 227.08 806.964 226.64C807.724 226.2 808.334 225.56 808.794 224.72C809.274 223.86 809.514 222.86 809.514 221.72ZM831.249 230.27C829.949 230.27 828.779 230.04 827.739 229.58C826.719 229.1 825.909 228.46 825.309 227.66C824.709 226.84 824.389 225.93 824.349 224.93H827.889C827.949 225.63 828.279 226.22 828.879 226.7C829.499 227.16 830.269 227.39 831.189 227.39C832.149 227.39 832.889 227.21 833.409 226.85C833.949 226.47 834.219 225.99 834.219 225.41C834.219 224.79 833.919 224.33 833.319 224.03C832.739 223.73 831.809 223.4 830.529 223.04C829.289 222.7 828.279 222.37 827.499 222.05C826.719 221.73 826.039 221.24 825.459 220.58C824.899 219.92 824.619 219.05 824.619 217.97C824.619 217.09 824.879 216.29 825.399 215.57C825.919 214.83 826.659 214.25 827.619 213.83C828.599 213.41 829.719 213.2 830.979 213.2C832.859 213.2 834.369 213.68 835.509 214.64C836.669 215.58 837.289 216.87 837.369 218.51H833.949C833.889 217.77 833.589 217.18 833.049 216.74C832.509 216.3 831.779 216.08 830.859 216.08C829.959 216.08 829.269 216.25 828.789 216.59C828.309 216.93 828.069 217.38 828.069 217.94C828.069 218.38 828.229 218.75 828.549 219.05C828.869 219.35 829.259 219.59 829.719 219.77C830.179 219.93 830.859 220.14 831.759 220.4C832.959 220.72 833.939 221.05 834.699 221.39C835.479 221.71 836.149 222.19 836.709 222.83C837.269 223.47 837.559 224.32 837.579 225.38C837.579 226.32 837.319 227.16 836.799 227.9C836.279 228.64 835.539 229.22 834.579 229.64C833.639 230.06 832.529 230.27 831.249 230.27ZM840.134 221.66C840.134 220 840.474 218.53 841.154 217.25C841.854 215.97 842.794 214.98 843.974 214.28C845.174 213.56 846.494 213.2 847.934 213.2C849.234 213.2 850.364 213.46 851.324 213.98C852.304 214.48 853.084 215.11 853.664 215.87V213.47H857.114V230H853.664V227.54C853.084 228.32 852.294 228.97 851.294 229.49C850.294 230.01 849.154 230.27 847.874 230.27C846.454 230.27 845.154 229.91 843.974 229.19C842.794 228.45 841.854 227.43 841.154 226.13C840.474 224.81 840.134 223.32 840.134 221.66ZM853.664 221.72C853.664 220.58 853.424 219.59 852.944 218.75C852.484 217.91 851.874 217.27 851.114 216.83C850.354 216.39 849.534 216.17 848.654 216.17C847.774 216.17 846.954 216.39 846.194 216.83C845.434 217.25 844.814 217.88 844.334 218.72C843.874 219.54 843.644 220.52 843.644 221.66C843.644 222.8 843.874 223.8 844.334 224.66C844.814 225.52 845.434 226.18 846.194 226.64C846.974 227.08 847.794 227.3 848.654 227.3C849.534 227.3 850.354 227.08 851.114 226.64C851.874 226.2 852.484 225.56 852.944 224.72C853.424 223.86 853.664 222.86 853.664 221.72ZM876.576 213.47V230H873.156V228.05C872.616 228.73 871.906 229.27 871.026 229.67C870.166 230.05 869.246 230.24 868.266 230.24C866.966 230.24 865.796 229.97 864.756 229.43C863.736 228.89 862.926 228.09 862.326 227.03C861.746 225.97 861.456 224.69 861.456 223.19V213.47H864.846V222.68C864.846 224.16 865.216 225.3 865.956 226.1C866.696 226.88 867.706 227.27 868.986 227.27C870.266 227.27 871.276 226.88 872.016 226.1C872.776 225.3 873.156 224.16 873.156 222.68V213.47H876.576ZM872.196 209.03L865.566 212.3V209.78L872.196 206.12V209.03ZM879.949 221.66C879.949 220 880.289 218.53 880.969 217.25C881.669 215.97 882.609 214.98 883.789 214.28C884.989 213.56 886.319 213.2 887.779 213.2C888.859 213.2 889.919 213.44 890.959 213.92C892.019 214.38 892.859 215 893.479 215.78V207.8H896.929V230H893.479V227.51C892.919 228.31 892.139 228.97 891.139 229.49C890.159 230.01 889.029 230.27 887.749 230.27C886.309 230.27 884.989 229.91 883.789 229.19C882.609 228.45 881.669 227.43 880.969 226.13C880.289 224.81 879.949 223.32 879.949 221.66ZM893.479 221.72C893.479 220.58 893.239 219.59 892.759 218.75C892.299 217.91 891.689 217.27 890.929 216.83C890.169 216.39 889.349 216.17 888.469 216.17C887.589 216.17 886.769 216.39 886.009 216.83C885.249 217.25 884.629 217.88 884.149 218.72C883.689 219.54 883.459 220.52 883.459 221.66C883.459 222.8 883.689 223.8 884.149 224.66C884.629 225.52 885.249 226.18 886.009 226.64C886.789 227.08 887.609 227.3 888.469 227.3C889.349 227.3 890.169 227.08 890.929 226.64C891.689 226.2 892.299 225.56 892.759 224.72C893.239 223.86 893.479 222.86 893.479 221.72ZM916.571 221.33C916.571 221.95 916.531 222.51 916.451 223.01H903.821C903.921 224.33 904.411 225.39 905.291 226.19C906.171 226.99 907.251 227.39 908.531 227.39C910.371 227.39 911.671 226.62 912.431 225.08H916.121C915.621 226.6 914.711 227.85 913.391 228.83C912.091 229.79 910.471 230.27 908.531 230.27C906.951 230.27 905.531 229.92 904.271 229.22C903.031 228.5 902.051 227.5 901.331 226.22C900.631 224.92 900.281 223.42 900.281 221.72C900.281 220.02 900.621 218.53 901.301 217.25C902.001 215.95 902.971 214.95 904.211 214.25C905.471 213.55 906.911 213.2 908.531 213.2C910.091 213.2 911.481 213.54 912.701 214.22C913.921 214.9 914.871 215.86 915.551 217.1C916.231 218.32 916.571 219.73 916.571 221.33ZM913.001 220.25C912.981 218.99 912.531 217.98 911.651 217.22C910.771 216.46 909.681 216.08 908.381 216.08C907.201 216.08 906.191 216.46 905.351 217.22C904.511 217.96 904.011 218.97 903.851 220.25H913.001ZM921.317 230.21C920.697 230.21 920.177 230 919.757 229.58C919.337 229.16 919.127 228.64 919.127 228.02C919.127 227.4 919.337 226.88 919.757 226.46C920.177 226.04 920.697 225.83 921.317 225.83C921.917 225.83 922.427 226.04 922.847 226.46C923.267 226.88 923.477 227.4 923.477 228.02C923.477 228.64 923.267 229.16 922.847 229.58C922.427 230 921.917 230.21 921.317 230.21Z" fill="white"/>
<path d="M449.831 187.2H441.781V195.5H432.381V187.2H424.281V178.35H432.381V170H441.781V178.35H449.831V187.2ZM453.424 192.15C456.658 189.617 459.308 187.433 461.374 185.6C463.441 183.767 465.174 181.883 466.574 179.95C467.974 177.983 468.674 176.117 468.674 174.35C468.674 173.283 468.424 172.45 467.924 171.85C467.458 171.25 466.758 170.95 465.824 170.95C464.858 170.95 464.108 171.367 463.574 172.2C463.041 173 462.791 174.183 462.824 175.75H453.324C453.424 172.783 454.074 170.333 455.274 168.4C456.474 166.433 458.041 165 459.974 164.1C461.908 163.167 464.058 162.7 466.424 162.7C470.524 162.7 473.574 163.717 475.574 165.75C477.574 167.783 478.574 170.417 478.574 173.65C478.574 177.117 477.408 180.367 475.074 183.4C472.774 186.433 469.891 189.15 466.424 191.55H478.924V199.5H453.424V192.15ZM482.191 181.2C482.191 175.467 483.358 170.95 485.691 167.65C488.025 164.35 491.691 162.7 496.691 162.7C501.691 162.7 505.358 164.35 507.691 167.65C510.058 170.95 511.241 175.467 511.241 181.2C511.241 187 510.075 191.55 507.741 194.85C505.408 198.15 501.725 199.8 496.691 199.8C491.658 199.8 487.975 198.15 485.641 194.85C483.341 191.55 482.191 187 482.191 181.2ZM501.541 181.2C501.541 178.2 501.225 175.917 500.591 174.35C499.958 172.75 498.658 171.95 496.691 171.95C494.725 171.95 493.425 172.75 492.791 174.35C492.158 175.917 491.841 178.2 491.841 181.2C491.841 184.267 492.141 186.6 492.741 188.2C493.375 189.767 494.691 190.55 496.691 190.55C498.691 190.55 499.991 189.767 500.591 188.2C501.225 186.6 501.541 184.267 501.541 181.2ZM523.873 185.95C523.873 183.05 524.39 180.517 525.423 178.35C526.49 176.183 527.923 174.517 529.723 173.35C531.556 172.183 533.59 171.6 535.823 171.6C537.756 171.6 539.423 171.983 540.823 172.75C542.223 173.517 543.306 174.55 544.073 175.85V171.95H553.873V200H544.073V196.1C543.306 197.4 542.206 198.433 540.773 199.2C539.373 199.967 537.723 200.35 535.823 200.35C533.59 200.35 531.556 199.767 529.723 198.6C527.923 197.433 526.49 195.767 525.423 193.6C524.39 191.4 523.873 188.85 523.873 185.95ZM544.073 185.95C544.073 184.15 543.573 182.733 542.573 181.7C541.606 180.667 540.406 180.15 538.973 180.15C537.506 180.15 536.29 180.667 535.323 181.7C534.356 182.7 533.873 184.117 533.873 185.95C533.873 187.75 534.356 189.183 535.323 190.25C536.29 191.283 537.506 191.8 538.973 191.8C540.406 191.8 541.606 191.283 542.573 190.25C543.573 189.217 544.073 187.783 544.073 185.95ZM577.807 171.7C581.041 171.7 583.607 172.783 585.507 174.95C587.407 177.083 588.357 179.983 588.357 183.65V200H578.557V184.95C578.557 183.35 578.141 182.1 577.307 181.2C576.474 180.267 575.357 179.8 573.957 179.8C572.491 179.8 571.341 180.267 570.507 181.2C569.674 182.1 569.257 183.35 569.257 184.95V200H559.457V171.95H569.257V175.95C570.124 174.683 571.291 173.667 572.757 172.9C574.224 172.1 575.907 171.7 577.807 171.7ZM606.785 200.35C603.985 200.35 601.468 199.767 599.235 198.6C597.035 197.433 595.301 195.767 594.035 193.6C592.768 191.433 592.135 188.883 592.135 185.95C592.135 183.05 592.768 180.517 594.035 178.35C595.335 176.183 597.085 174.517 599.285 173.35C601.518 172.183 604.035 171.6 606.835 171.6C609.635 171.6 612.135 172.183 614.335 173.35C616.568 174.517 618.318 176.183 619.585 178.35C620.885 180.517 621.535 183.05 621.535 185.95C621.535 188.85 620.885 191.4 619.585 193.6C618.318 195.767 616.568 197.433 614.335 198.6C612.101 199.767 609.585 200.35 606.785 200.35ZM606.785 191.85C608.151 191.85 609.285 191.35 610.185 190.35C611.118 189.317 611.585 187.85 611.585 185.95C611.585 184.05 611.118 182.6 610.185 181.6C609.285 180.6 608.168 180.1 606.835 180.1C605.501 180.1 604.385 180.6 603.485 181.6C602.585 182.6 602.135 184.05 602.135 185.95C602.135 187.883 602.568 189.35 603.435 190.35C604.301 191.35 605.418 191.85 606.785 191.85ZM637.472 200.35C634.938 200.35 632.672 199.933 630.672 199.1C628.705 198.233 627.138 197.067 625.972 195.6C624.838 194.1 624.205 192.417 624.072 190.55H633.572C633.705 191.45 634.122 192.15 634.822 192.65C635.522 193.15 636.388 193.4 637.422 193.4C638.222 193.4 638.855 193.233 639.322 192.9C639.788 192.567 640.022 192.133 640.022 191.6C640.022 190.9 639.638 190.383 638.872 190.05C638.105 189.717 636.838 189.35 635.072 188.95C633.072 188.55 631.405 188.1 630.072 187.6C628.738 187.1 627.572 186.283 626.572 185.15C625.605 184.017 625.122 182.483 625.122 180.55C625.122 178.883 625.572 177.383 626.472 176.05C627.372 174.683 628.688 173.6 630.422 172.8C632.188 172 634.305 171.6 636.772 171.6C640.438 171.6 643.322 172.5 645.422 174.3C647.522 176.1 648.738 178.467 649.072 181.4H640.222C640.055 180.5 639.655 179.817 639.022 179.35C638.422 178.85 637.605 178.6 636.572 178.6C635.772 178.6 635.155 178.75 634.722 179.05C634.322 179.35 634.122 179.767 634.122 180.3C634.122 180.967 634.505 181.483 635.272 181.85C636.038 182.183 637.272 182.533 638.972 182.9C641.005 183.333 642.688 183.817 644.022 184.35C645.388 184.883 646.572 185.75 647.572 186.95C648.605 188.117 649.122 189.717 649.122 191.75C649.122 193.383 648.638 194.85 647.672 196.15C646.738 197.45 645.388 198.483 643.622 199.25C641.888 199.983 639.838 200.35 637.472 200.35ZM661.91 185.95C661.91 183.05 662.427 180.517 663.46 178.35C664.527 176.183 665.977 174.517 667.81 173.35C669.643 172.183 671.677 171.6 673.91 171.6C675.71 171.6 677.31 171.983 678.71 172.75C680.143 173.483 681.26 174.5 682.06 175.8V163H691.91V200H682.06V196.1C681.293 197.4 680.21 198.433 678.81 199.2C677.41 199.967 675.76 200.35 673.86 200.35C671.627 200.35 669.593 199.767 667.76 198.6C665.96 197.433 664.527 195.767 663.46 193.6C662.427 191.4 661.91 188.85 661.91 185.95ZM682.11 185.95C682.11 184.15 681.61 182.733 680.61 181.7C679.643 180.667 678.443 180.15 677.01 180.15C675.543 180.15 674.327 180.667 673.36 181.7C672.393 182.7 671.91 184.117 671.91 185.95C671.91 187.75 672.393 189.183 673.36 190.25C674.327 191.283 675.543 191.8 677.01 191.8C678.443 191.8 679.643 191.283 680.61 190.25C681.61 189.217 682.11 187.783 682.11 185.95ZM724.294 185.65C724.294 186.417 724.244 187.183 724.144 187.95H705.594C705.694 189.483 706.111 190.633 706.844 191.4C707.611 192.133 708.578 192.5 709.744 192.5C711.378 192.5 712.544 191.767 713.244 190.3H723.694C723.261 192.233 722.411 193.967 721.144 195.5C719.911 197 718.344 198.183 716.444 199.05C714.544 199.917 712.444 200.35 710.144 200.35C707.378 200.35 704.911 199.767 702.744 198.6C700.611 197.433 698.928 195.767 697.694 193.6C696.494 191.433 695.894 188.883 695.894 185.95C695.894 183.017 696.494 180.483 697.694 178.35C698.894 176.183 700.561 174.517 702.694 173.35C704.861 172.183 707.344 171.6 710.144 171.6C712.911 171.6 715.361 172.167 717.494 173.3C719.628 174.433 721.294 176.067 722.494 178.2C723.694 180.3 724.294 182.783 724.294 185.65ZM714.294 183.2C714.294 182 713.894 181.067 713.094 180.4C712.294 179.7 711.294 179.35 710.094 179.35C708.894 179.35 707.911 179.683 707.144 180.35C706.378 180.983 705.878 181.933 705.644 183.2H714.294ZM764.675 185.65C764.675 186.417 764.625 187.183 764.525 187.95H745.975C746.075 189.483 746.492 190.633 747.225 191.4C747.992 192.133 748.959 192.5 750.125 192.5C751.759 192.5 752.925 191.767 753.625 190.3H764.075C763.642 192.233 762.792 193.967 761.525 195.5C760.292 197 758.725 198.183 756.825 199.05C754.925 199.917 752.825 200.35 750.525 200.35C747.759 200.35 745.292 199.767 743.125 198.6C740.992 197.433 739.309 195.767 738.075 193.6C736.875 191.433 736.275 188.883 736.275 185.95C736.275 183.017 736.875 180.483 738.075 178.35C739.275 176.183 740.942 174.517 743.075 173.35C745.242 172.183 747.725 171.6 750.525 171.6C753.292 171.6 755.742 172.167 757.875 173.3C760.009 174.433 761.675 176.067 762.875 178.2C764.075 180.3 764.675 182.783 764.675 185.65ZM754.675 183.2C754.675 182 754.275 181.067 753.475 180.4C752.675 179.7 751.675 179.35 750.475 179.35C749.275 179.35 748.292 179.683 747.525 180.35C746.759 180.983 746.259 181.933 746.025 183.2H754.675ZM786.186 200L781.136 192.95L777.136 200H766.386L775.736 185.45L765.986 171.95H776.986L782.036 179L786.086 171.95H796.836L787.286 186.25L797.186 200H786.186ZM798.482 185.95C798.482 183.05 799.082 180.517 800.282 178.35C801.482 176.183 803.149 174.517 805.282 173.35C807.449 172.183 809.916 171.6 812.682 171.6C816.249 171.6 819.249 172.583 821.682 174.55C824.116 176.483 825.682 179.2 826.382 182.7H815.982C815.382 180.867 814.216 179.95 812.482 179.95C811.249 179.95 810.266 180.467 809.532 181.5C808.832 182.5 808.482 183.983 808.482 185.95C808.482 187.917 808.832 189.417 809.532 190.45C810.266 191.483 811.249 192 812.482 192C814.249 192 815.416 191.083 815.982 189.25H826.382C825.682 192.717 824.116 195.433 821.682 197.4C819.249 199.367 816.249 200.35 812.682 200.35C809.916 200.35 807.449 199.767 805.282 198.6C803.149 197.433 801.482 195.767 800.282 193.6C799.082 191.433 798.482 188.883 798.482 185.95ZM857.253 185.65C857.253 186.417 857.203 187.183 857.103 187.95H838.553C838.653 189.483 839.07 190.633 839.803 191.4C840.57 192.133 841.537 192.5 842.703 192.5C844.337 192.5 845.503 191.767 846.203 190.3H856.653C856.22 192.233 855.37 193.967 854.103 195.5C852.87 197 851.303 198.183 849.403 199.05C847.503 199.917 845.403 200.35 843.103 200.35C840.337 200.35 837.87 199.767 835.703 198.6C833.57 197.433 831.887 195.767 830.653 193.6C829.453 191.433 828.853 188.883 828.853 185.95C828.853 183.017 829.453 180.483 830.653 178.35C831.853 176.183 833.52 174.517 835.653 173.35C837.82 172.183 840.303 171.6 843.103 171.6C845.87 171.6 848.32 172.167 850.453 173.3C852.587 174.433 854.253 176.067 855.453 178.2C856.653 180.3 857.253 182.783 857.253 185.65ZM847.253 183.2C847.253 182 846.853 181.067 846.053 180.4C845.253 179.7 844.253 179.35 843.053 179.35C841.853 179.35 840.87 179.683 840.103 180.35C839.337 180.983 838.837 181.933 838.603 183.2H847.253ZM871.064 163V200H861.264V163H871.064ZM903.445 185.65C903.445 186.417 903.395 187.183 903.295 187.95H884.745C884.845 189.483 885.261 190.633 885.995 191.4C886.761 192.133 887.728 192.5 888.895 192.5C890.528 192.5 891.695 191.767 892.395 190.3H902.845C902.411 192.233 901.561 193.967 900.295 195.5C899.061 197 897.495 198.183 895.595 199.05C893.695 199.917 891.595 200.35 889.295 200.35C886.528 200.35 884.061 199.767 881.895 198.6C879.761 197.433 878.078 195.767 876.845 193.6C875.645 191.433 875.045 188.883 875.045 185.95C875.045 183.017 875.645 180.483 876.845 178.35C878.045 176.183 879.711 174.517 881.845 173.35C884.011 172.183 886.495 171.6 889.295 171.6C892.061 171.6 894.511 172.167 896.645 173.3C898.778 174.433 900.445 176.067 901.645 178.2C902.845 180.3 903.445 182.783 903.445 185.65ZM893.445 183.2C893.445 182 893.045 181.067 892.245 180.4C891.445 179.7 890.445 179.35 889.245 179.35C888.045 179.35 887.061 179.683 886.295 180.35C885.528 180.983 885.028 181.933 884.795 183.2H893.445ZM889.295 165.8L881.245 169.8V163.25L889.295 159.4L897.245 163.25V169.8L889.295 165.8ZM925.805 171.7C929.039 171.7 931.605 172.783 933.505 174.95C935.405 177.083 936.355 179.983 936.355 183.65V200H926.555V184.95C926.555 183.35 926.139 182.1 925.305 181.2C924.472 180.267 923.355 179.8 921.955 179.8C920.489 179.8 919.339 180.267 918.505 181.2C917.672 182.1 917.255 183.35 917.255 184.95V200H907.455V171.95H917.255V175.95C918.122 174.683 919.289 173.667 920.755 172.9C922.222 172.1 923.905 171.7 925.805 171.7ZM940.133 185.95C940.133 183.05 940.733 180.517 941.933 178.35C943.133 176.183 944.799 174.517 946.933 173.35C949.099 172.183 951.566 171.6 954.333 171.6C957.899 171.6 960.899 172.583 963.333 174.55C965.766 176.483 967.333 179.2 968.033 182.7H957.633C957.033 180.867 955.866 179.95 954.133 179.95C952.899 179.95 951.916 180.467 951.183 181.5C950.483 182.5 950.133 183.983 950.133 185.95C950.133 187.917 950.483 189.417 951.183 190.45C951.916 191.483 952.899 192 954.133 192C955.899 192 957.066 191.083 957.633 189.25H968.033C967.333 192.717 965.766 195.433 963.333 197.4C960.899 199.367 957.899 200.35 954.333 200.35C951.566 200.35 949.099 199.767 946.933 198.6C944.799 197.433 943.133 195.767 941.933 193.6C940.733 191.433 940.133 188.883 940.133 185.95ZM977.054 169.35C975.32 169.35 973.92 168.883 972.854 167.95C971.82 166.983 971.304 165.783 971.304 164.35C971.304 162.883 971.82 161.667 972.854 160.7C973.92 159.733 975.32 159.25 977.054 159.25C978.754 159.25 980.12 159.733 981.154 160.7C982.22 161.667 982.754 162.883 982.754 164.35C982.754 165.783 982.22 166.983 981.154 167.95C980.12 168.883 978.754 169.35 977.054 169.35ZM981.904 171.95V200H972.104V171.95H981.904ZM985.885 185.95C985.885 183.05 986.401 180.517 987.435 178.35C988.501 176.183 989.935 174.517 991.735 173.35C993.568 172.183 995.601 171.6 997.835 171.6C999.768 171.6 1001.43 171.983 1002.83 172.75C1004.23 173.517 1005.32 174.55 1006.08 175.85V171.95H1015.88V200H1006.08V196.1C1005.32 197.4 1004.22 198.433 1002.78 199.2C1001.38 199.967 999.735 200.35 997.835 200.35C995.601 200.35 993.568 199.767 991.735 198.6C989.935 197.433 988.501 195.767 987.435 193.6C986.401 191.4 985.885 188.85 985.885 185.95ZM1006.08 185.95C1006.08 184.15 1005.58 182.733 1004.58 181.7C1003.62 180.667 1002.42 180.15 1000.98 180.15C999.518 180.15 998.301 180.667 997.335 181.7C996.368 182.7 995.885 184.117 995.885 185.95C995.885 187.75 996.368 189.183 997.335 190.25C998.301 191.283 999.518 191.8 1000.98 191.8C1002.42 191.8 1003.62 191.283 1004.58 190.25C1005.58 189.217 1006.08 187.783 1006.08 185.95Z" fill="#FF414B"/>
</svg>
