<svg width="54" height="54" viewBox="0 0 54 54" fill="none" xmlns="http://www.w3.org/2000/svg">
<path d="M22.1198 0.42571C20.2865 0.108766 18.2657 0.96504 17.3271 2.59529C17.0645 3.01905 16.744 3.62141 16.1399 3.48833C14.5272 3.22042 12.8216 3.39553 11.4068 4.25355C8.90274 5.6474 7.55442 9.01471 8.84846 11.6641C9.2302 12.3067 8.69962 13.1875 7.96767 13.212C5.78759 13.5517 3.86141 15.4201 3.73708 17.6685C3.63727 18.6404 3.94896 19.5842 4.41825 20.4212C4.83851 21.0166 4.52682 21.9289 3.81588 22.1145C1.57276 22.892 -0.393693 25.4538 0.511611 27.8667C0.807542 28.9104 1.64806 29.6248 2.35899 30.3883C2.82653 30.9416 2.34148 31.6613 2.24517 32.2549C3.3466 31.0187 4.86828 30.2324 6.49852 29.9768C7.67174 26.9299 11.2387 25.1263 14.3871 26.0106C15.3835 26.3748 15.2854 28.0296 14.2225 28.238C13.2437 28.2397 12.235 27.9508 11.286 28.3325C9.76427 28.7861 8.76791 30.1817 8.35291 31.6526C8.11476 32.3793 7.22872 32.2567 6.6316 32.3705C4.75971 32.5806 3.27305 34.2231 3.0209 36.0583C3.83865 36.7114 3.54972 37.8496 4.0155 38.6971C4.86127 40.6391 7.05011 41.7282 9.11462 41.5479C9.75727 41.4551 10.3614 41.9786 10.3369 42.637C10.1232 43.7069 9.56465 44.7558 9.78703 45.8783C10.1162 48.1512 12.2315 49.9495 14.5149 49.988C15.3134 49.9145 16.1574 50.1736 16.4814 50.9739C17.7964 53.5129 21.3844 54.2186 23.6905 52.6322C25.1194 51.7304 25.9302 50.0231 25.8339 48.349C25.7936 44.4809 25.8934 40.6075 25.7848 36.7464C25.228 35.7186 25.4381 34.47 24.8357 33.4597C23.8779 31.6035 21.6751 30.5844 19.6333 30.8313C17.6458 31.0292 15.7477 32.3197 15.0385 34.2266C17.2168 34.9236 19.0905 36.9951 18.8628 39.387C18.749 40.4534 17.019 40.6216 16.6775 39.6287C16.5199 38.8775 16.5147 38.0265 15.9456 37.4399C14.8651 36.1143 12.5958 36.1598 11.5696 37.5274C10.9953 38.1508 11.1143 39.0543 10.8377 39.7968C10.3386 40.611 8.8327 40.3782 8.72238 39.3818C8.5 36.9636 10.4122 34.7397 12.7306 34.2512C13.396 31.5878 15.6304 29.4672 18.2937 28.8561C20.9624 28.1014 23.9427 28.9997 25.8426 31.0012C25.8198 25.6534 25.8268 20.3021 25.8374 14.9526C23.6503 16.7667 20.6104 17.6545 17.835 16.8297C16.5742 16.4077 15.2329 15.8999 14.3398 14.8685C13.762 14 14.8354 12.8215 15.7442 13.226C16.5287 13.7006 17.2711 14.2662 18.1642 14.5306C19.9783 15.175 22.069 14.8861 23.6503 13.7934C24.806 13.0194 25.9039 11.8462 25.9372 10.377C25.9529 8.47538 25.9477 6.57547 25.9372 4.67381C25.9354 2.56902 24.1493 0.749658 22.1198 0.42571Z" fill="#022B3E"/>
<path d="M51.7585 23.2615C51.2472 22.7029 51.734 21.9535 51.846 21.3354C50.7604 22.5856 49.2282 23.3666 47.605 23.624C46.3722 26.6551 42.9016 28.5445 39.6989 27.753C38.6167 27.4869 38.6272 25.7446 39.7164 25.4907C40.6339 25.4469 41.569 25.7691 42.4691 25.4574C44.0625 25.0704 45.1762 23.6625 45.5965 22.1321C45.8066 21.3494 46.7364 21.4684 47.3598 21.3546C49.2212 21.134 50.6886 19.502 50.953 17.6826C50.4697 17.2589 50.3191 16.66 50.2666 16.0471C49.8708 13.6919 47.4876 12.0302 45.1552 12.1825C44.46 12.3208 43.6248 11.9321 43.6388 11.1371C43.8314 9.98316 44.474 8.85022 44.1483 7.64899C43.7036 5.26228 41.3116 3.55148 38.9179 3.72483C37.904 3.88944 37.6361 2.75124 37.1143 2.14362C35.3299 -0.120518 31.5511 -0.229085 29.5777 1.84243C28.5445 2.95261 27.9474 4.4848 28.0227 6.00648C28.0402 10.167 28.0192 14.3293 28.0315 18.4899C28.042 20.761 29.9349 22.6837 32.1167 23.0637C34.6278 23.5662 37.4242 22.1724 38.3628 19.7489C36.2247 19.0362 34.3774 17.0627 34.5104 14.697C34.5052 13.5851 36.216 13.2909 36.6853 14.2348C36.8831 14.9912 36.8376 15.8668 37.4155 16.4779C38.4626 17.8175 40.718 17.8175 41.7774 16.4866C42.3552 15.8738 42.3115 14.9895 42.5146 14.2243C42.9909 13.2962 44.6702 13.5869 44.6842 14.6848C44.8278 17.0838 42.9261 19.2288 40.6374 19.7226C39.8127 23.3246 36.0181 25.7008 32.4267 25.326C30.7894 25.1947 29.3045 24.3822 28.0245 23.3981C28.0297 27.6147 28.0227 31.833 28.0297 36.0531C29.3378 35.9691 30.553 35.3667 31.8646 35.3229C33.6752 35.2564 35.5103 35.906 36.8341 37.1493C38.0809 38.3435 38.8303 40 39.0562 41.7003C40.8721 42.772 41.8772 45.2708 40.7723 47.1794C40.1892 48.0007 38.8321 47.358 38.8584 46.4387C38.8706 45.7681 39.1333 45.0449 38.7725 44.418C38.3068 43.4391 36.997 42.9996 36.0479 43.5512C35.3527 43.8646 35.1829 44.6754 34.6996 45.1972C34.141 45.6823 33.2217 45.4389 32.931 44.777C32.6 44.0905 33.0693 43.3691 33.4195 42.793C34.148 41.667 35.456 41.1137 36.7396 40.9193C36.2177 39.2838 34.8957 37.9408 33.1831 37.6046C31.4443 37.1143 29.8613 38.2717 28.1418 38.242C28.1453 41.97 28.1243 45.6928 28.1488 49.419C28.2293 51.6359 30.2571 53.4658 32.4232 53.5866C34.2163 53.7354 36.0059 52.7758 36.9497 51.2594C37.2106 50.9355 37.3875 50.4539 37.8392 50.3611C38.284 50.3226 38.727 50.4242 39.1718 50.4487C41.8072 50.6973 44.5336 49.0916 45.5124 46.6156C46.1358 45.1779 46.1148 43.4934 45.4354 42.0838C45.0852 41.3886 45.7471 40.5971 46.4703 40.6024C48.906 40.2014 50.9215 37.8024 50.559 35.2949C50.5222 34.4019 49.9199 33.6892 49.6922 32.8557C49.6414 32.0292 50.4417 31.7245 51.0633 31.4618C53.1629 30.5495 54.3991 27.9632 53.5884 25.7813C53.2889 24.7447 52.4869 24.0057 51.7585 23.2615Z" fill="#022B3E"/>
</svg>
