<svg width="39" height="52" viewBox="0 0 39 52" fill="none" xmlns="http://www.w3.org/2000/svg">
<path d="M20.7296 51.0255C20.6637 51.031 20.5978 51.031 20.532 51.0255C10.3361 47.9768 0.716797 35.8753 0.716797 26.1854C0.716797 20.456 4.18678 16.2702 10.4514 14.3037C16.6612 5.27842 25.1055 1.35081 35.6088 2.6417C35.9108 2.68015 36.1194 2.84495 36.2238 3.13609L38.7768 10.063C38.8208 10.1893 38.8372 10.3102 38.8208 10.442C38.7988 10.5683 38.7549 10.6837 38.678 10.7881C38.6011 10.8924 38.5023 10.9693 38.387 11.0243C38.2662 11.0792 38.1454 11.1012 38.0137 11.0957C35.3672 11.0407 32.7702 11.3703 30.2172 12.0845C34.615 15.4737 36.9265 21.0438 36.5971 27.6576C36.4434 30.1075 35.9767 32.5025 35.1861 34.8316C34.4009 37.1607 33.3303 39.347 31.9631 41.3905C30.6015 43.4394 28.9928 45.2687 27.148 46.8891C25.2977 48.5096 23.2717 49.8609 21.0645 50.9486C20.9602 50.998 20.8504 51.0255 20.7296 51.0255ZM31.6996 3.92161C23.3815 3.92161 16.771 7.68443 11.566 15.3584C11.4617 15.5067 11.3189 15.6056 11.1432 15.655C5.33978 17.3799 2.24315 21.0054 2.24315 26.1634C2.24315 35.0129 11.3025 46.4497 20.6692 49.4435C22.7172 48.4107 24.6004 47.1253 26.3134 45.5982C28.032 44.0711 29.5199 42.3463 30.7827 40.4292C32.0455 38.5121 33.0448 36.4631 33.7695 34.2878C34.4997 32.107 34.939 29.8713 35.0817 27.5807C35.4112 20.923 32.8691 15.4188 28.1253 12.48C27.8508 12.3152 27.7355 12.0735 27.7629 11.7604C27.7959 11.4418 27.9606 11.2275 28.2626 11.1177C31.0792 10.1289 33.9781 9.61253 36.965 9.55759L34.9609 4.10288C33.8738 3.98203 32.7867 3.92161 31.6996 3.92161Z" fill="#022B3E"/>
<path d="M20.5318 18.3906C20.3726 18.3906 20.2299 18.3467 20.0981 18.2533C19.9224 18.1324 19.8181 17.9676 19.7796 17.7589C19.7412 17.5501 19.7851 17.3579 19.9059 17.1876C22.0307 14.2597 24.8089 12.2273 28.235 11.0847C28.4326 11.0243 28.6248 11.0353 28.8115 11.1231C28.9927 11.2165 29.1244 11.3594 29.1903 11.5516C29.2617 11.7439 29.2562 11.9361 29.1684 12.1229C29.086 12.3152 28.9487 12.447 28.7566 12.5184C25.6215 13.5401 23.0849 15.3749 21.1358 18.0335C20.9985 18.2588 20.7954 18.3741 20.5318 18.3906Z" fill="#022B3E"/>
<path d="M23.8097 28.9155C18.4729 28.9155 12.9934 24.7133 12.7244 24.499C12.5542 24.3672 12.4554 24.1969 12.4279 23.9827C12.4005 23.7684 12.4554 23.5762 12.5871 23.4114C12.7189 23.2411 12.8891 23.1422 13.1032 23.1147C13.3119 23.0873 13.504 23.1422 13.6742 23.2686C13.7511 23.3235 21.1797 28.9869 26.3847 26.8995C32.2595 24.543 32.1003 16.056 32.1003 15.9681C32.1003 15.7539 32.1772 15.5781 32.3254 15.4298C32.4737 15.2815 32.6549 15.2046 32.8635 15.2046C33.0721 15.2046 33.2533 15.2815 33.4016 15.4298C33.5498 15.5781 33.6267 15.7539 33.6267 15.9681C33.6267 16.3582 33.8133 25.6031 26.9502 28.3552C25.94 28.7452 24.8913 28.932 23.8097 28.9155Z" fill="#022B3E"/>
<path d="M14.9535 40.6325H14.8163C14.6076 40.594 14.4484 40.4897 14.3276 40.3139C14.2068 40.1381 14.1684 39.9459 14.2068 39.7426C15.9583 30.0472 26.0059 27.0149 26.4012 26.8831C26.6043 26.8282 26.7965 26.8447 26.9832 26.949C27.1644 27.0479 27.2852 27.2017 27.3456 27.405C27.406 27.6082 27.384 27.8005 27.2852 27.9817C27.1808 28.1685 27.0326 28.2894 26.8295 28.3498C26.7361 28.3498 17.265 31.2612 15.6783 40.0118C15.6453 40.1875 15.563 40.3359 15.4257 40.4512C15.2885 40.5666 15.1347 40.627 14.9535 40.6325Z" fill="#022B3E"/>
<path d="M19.8401 45.1863C19.6863 45.1863 19.5436 45.1479 19.4118 45.06C19.2361 44.9446 19.1263 44.7853 19.0879 44.5766C19.0439 44.3679 19.0824 44.1756 19.1977 43.9998C20.5758 41.9014 21.4817 39.6218 21.9264 37.1498C22.3657 34.6779 22.3053 32.2225 21.7453 29.7725C21.6849 29.5748 21.7068 29.3825 21.8057 29.1957C21.9045 29.0145 22.0527 28.8881 22.2559 28.8277C22.459 28.7673 22.6512 28.7892 22.8379 28.8881C23.0245 28.987 23.1453 29.1353 23.2057 29.3386C23.8481 32.0027 23.9305 34.6834 23.4528 37.3806C22.9806 40.0777 21.9868 42.5661 20.4715 44.8458C20.3232 45.071 20.1091 45.1863 19.8401 45.1863Z" fill="#022B3E"/>
<path d="M4.08791 19.7035C3.79143 19.7035 3.57181 19.5717 3.42356 19.3135C-0.540567 12.1779 4.65892 1.99902 4.88952 1.57056C5.02678 1.30139 5.25189 1.16406 5.55936 1.15857H12.5103C12.6366 1.16406 12.7574 1.19702 12.8672 1.25745C12.977 1.31787 13.0703 1.40576 13.1362 1.51013C13.2076 1.62 13.246 1.73535 13.257 1.86169C13.268 1.98804 13.246 2.10889 13.1966 2.22974C13.1966 2.29016 10.358 8.17334 13.6908 11.1342C13.872 11.266 13.9763 11.4418 13.9982 11.667C14.0257 11.8922 13.9598 12.0845 13.8116 12.2548C13.6633 12.425 13.4766 12.5074 13.2515 12.5129C13.0264 12.5129 12.8343 12.436 12.686 12.2712C9.44662 9.43127 10.6271 4.79504 11.3903 2.68567H6.0535C5.13659 4.61377 1.6117 12.903 4.75775 18.5719C4.86207 18.7587 4.88403 18.9509 4.82364 19.1542C4.76873 19.3574 4.64794 19.5112 4.46126 19.6101C4.34596 19.6705 4.21968 19.7035 4.08791 19.7035Z" fill="#022B3E"/>
<path d="M11.4726 5.99257C11.2859 5.99257 11.1267 5.93764 10.9839 5.81679C10.8247 5.68496 10.7313 5.51467 10.7094 5.30043C10.6929 5.09169 10.7478 4.90493 10.8851 4.74563C12.2028 3.35036 13.7676 2.33413 15.5794 1.69143C18.3851 0.598285 23.0465 -0.110333 29.3715 2.5923C29.5692 2.6747 29.701 2.81752 29.7778 3.00978C29.8602 3.20754 29.8547 3.40529 29.7723 3.59755C29.69 3.78981 29.5527 3.92714 29.3551 4.00405C29.1574 4.08095 28.9652 4.08095 28.7731 3.99855C17.6878 -0.74754 12.2797 5.45424 12.06 5.71792C11.9063 5.90468 11.7086 5.99257 11.4726 5.99257Z" fill="#022B3E"/>
</svg>
