<svg width="47" height="54" viewBox="0 0 47 54" fill="none" xmlns="http://www.w3.org/2000/svg">
<mask id="mask0_59_67" style="mask-type:luminance" maskUnits="userSpaceOnUse" x="0" y="0" width="45" height="54">
<path d="M0.757019 0.58606H44.1099V53.293H0.757019V0.58606Z" fill="white"/>
</mask>
<g mask="url(#mask0_59_67)">
<path d="M43.0557 19.9934C43.0557 18.3949 41.7599 17.0985 40.1622 17.0985C38.5644 17.0985 37.2687 18.3949 37.2687 19.9934C37.2687 21.2459 38.0703 22.317 39.1904 22.7235V39.225C39.1904 45.663 33.9579 50.9089 27.5121 50.9089C21.0663 50.9089 15.8338 45.674 15.8338 39.225V32.8694C19.4576 32.5068 22.8122 30.1448 24.0037 27.9475C25.2335 25.6678 26.5622 21.9929 27.4462 18.3729C28.2094 15.2913 28.9726 10.9517 28.3027 7.82056C27.7701 5.32117 26.0516 3.6073 23.3119 2.87671C22.9879 2.79431 22.664 2.71741 22.362 2.66797C22.0161 1.47595 20.907 0.597046 19.5948 0.597046C17.9971 0.597046 16.7013 1.89343 16.7013 3.49194C16.7013 5.09045 17.9971 6.38684 19.5948 6.38684C20.7972 6.38684 21.8185 5.65625 22.2577 4.61804C23.9378 4.95312 25.9034 5.854 26.403 8.23804C27.3968 12.9072 24.6406 22.7125 22.3016 27.0411C21.2859 28.9088 17.9861 31.0017 14.873 31.0017C11.7599 31.0017 8.46012 28.9088 7.44438 27.0411C5.09445 22.7015 2.33823 12.8962 3.32652 8.22705C3.83164 5.84302 5.80272 4.94214 7.47732 4.61255C7.91656 5.65625 8.93779 6.38684 10.1402 6.38684C11.7379 6.38684 13.0337 5.09045 13.0337 3.49194C13.0337 1.89343 11.7489 0.597046 10.1512 0.597046C8.83347 0.597046 7.72439 1.47595 7.373 2.66797C7.07103 2.71741 6.74709 2.79431 6.42315 2.87671C3.6834 3.6073 1.95939 5.32117 1.42681 7.82056C0.75697 10.9517 1.52015 15.2913 2.28332 18.3729C3.17278 21.9984 4.49599 25.6678 5.73135 27.9475C6.92278 30.1448 10.2775 32.5068 13.9012 32.8694V39.225C13.9012 46.7396 20.0121 52.8535 27.5231 52.8535C35.0341 52.8535 41.145 46.7396 41.145 39.225V22.7235C42.2486 22.3225 43.0557 21.2568 43.0557 19.9934Z" fill="#022B3E"/>
</g>
<mask id="mask1_59_67" style="mask-type:luminance" maskUnits="userSpaceOnUse" x="32" y="13" width="15" height="14">
<path d="M32.8653 13.3906H46.0644V26.0469H32.8653V13.3906Z" fill="white"/>
</mask>
<g mask="url(#mask1_59_67)">
<path d="M40.1622 13.9344C36.8185 13.9344 34.0952 16.6481 34.0952 20.0044C34.0952 22.5752 35.7039 24.7725 37.955 25.6569V23.4871C36.8075 22.751 36.0334 21.4656 36.0334 20.0044C36.0334 17.7247 37.8836 15.879 40.1622 15.879C42.4408 15.879 44.2856 17.7247 44.2856 20.0044C44.2856 21.4656 43.5279 22.751 42.3639 23.4871V25.6459C44.6205 24.7615 46.2292 22.5642 46.2292 19.9934C46.2292 16.6481 43.5059 13.9344 40.1622 13.9344Z" fill="#022B3E"/>
</g>
</svg>
