<svg width="198" height="155" viewBox="0 0 198 155" fill="none" xmlns="http://www.w3.org/2000/svg">
<path fill-rule="evenodd" clip-rule="evenodd" d="M177.105 54.4449C174.338 54.4449 172.092 56.6861 172.092 59.4547C172.092 62.2177 174.338 64.4644 177.105 64.4644C179.866 64.4644 182.112 62.2177 182.112 59.4547C182.112 56.6861 179.866 54.4449 177.105 54.4449ZM126.027 4.39668C119.828 4.39668 114.799 9.42842 114.799 15.6357C114.799 21.8375 119.828 26.8692 126.027 26.8692C132.231 26.8692 137.255 21.8375 137.255 15.6357C137.255 9.42842 132.231 4.39668 126.027 4.39668ZM23.0802 90.3208C18.9788 90.3208 15.6516 93.6441 15.6516 97.753C15.6516 101.851 18.9788 105.18 23.0802 105.18C27.1816 105.18 30.5034 101.851 30.5034 97.753C30.5034 93.6441 27.1816 90.3208 23.0802 90.3208ZM188.602 106.592C183.869 106.592 180.037 110.426 180.037 115.161C180.037 119.896 183.869 123.73 188.602 123.73C193.335 123.73 197.172 119.896 197.172 115.161C197.172 110.426 193.335 106.592 188.602 106.592ZM119.91 70.8914C118.208 70.8914 116.83 72.2702 116.83 73.9731C116.83 75.676 118.208 77.0548 119.91 77.0548C121.612 77.0548 122.991 75.676 122.991 73.9731C122.991 72.2702 121.612 70.8914 119.91 70.8914ZM107.172 74.5279C104.641 74.5279 102.588 76.5824 102.588 79.1147C102.588 81.6525 104.641 83.707 107.172 83.707C109.709 83.707 111.763 81.6525 111.763 79.1147C111.763 76.5824 109.709 74.5279 107.172 74.5279ZM119.197 82.0316C115.425 82.0316 112.366 85.0913 112.366 88.8651C112.366 92.6389 115.425 95.7041 119.197 95.7041C122.969 95.7041 126.027 92.6389 126.027 88.8651C126.027 85.0913 122.969 82.0316 119.197 82.0316ZM140.017 93.4134C140.017 68.2053 119.592 47.7707 94.3961 47.7707C69.2058 47.7707 48.7867 68.2053 48.7867 93.4134C48.7867 118.616 69.2058 139.051 94.3961 139.051C119.592 139.051 140.017 118.616 140.017 93.4134ZM158.854 42.9697L140.428 55.9171C142.745 58.757 144.826 61.8552 146.638 65.2005C156.779 83.9487 155.807 105.652 145.935 122.818L157.416 129.157C158.591 127.921 160.007 126.867 161.633 126.07C168.962 122.5 177.797 125.543 181.365 132.871C184.94 140.204 181.898 149.043 174.574 152.613C167.244 156.189 158.41 153.146 154.841 145.818C153.249 142.55 152.974 138.985 153.803 135.716L141.784 129.075C136.898 135.519 130.589 141.056 123.023 145.203C94.3906 160.875 58.4774 150.356 42.813 121.709C42.4067 120.956 42.0169 120.204 41.6436 119.446L29.279 125.224C29.5864 126.905 29.6084 128.674 29.29 130.454C27.8679 138.485 20.2087 143.841 12.1871 142.418C4.16002 140.995 -1.1932 133.332 0.228831 125.301C1.65087 117.276 9.31009 111.92 17.3317 113.343C20.9115 113.974 23.9532 115.848 26.1055 118.446L38.7665 112.524C32.1999 93.4629 35.9499 72.6108 47.9302 57.1146C50.4173 53.9011 50.7742 49.5175 48.8251 45.9415L36.9711 24.2655C36.488 23.3866 35.346 22.9965 34.473 23.4799C33.8306 23.8315 33.1004 23.8919 32.447 23.7052C31.7991 23.5074 31.2226 23.0679 30.8712 22.4252C30.5198 21.7825 30.4594 21.0629 30.6461 20.4093C30.8438 19.7611 31.283 19.1788 31.9254 18.8327L65.6974 0.342728C66.9272 -0.327439 68.5195 0.00215256 69.2772 1.18318C69.7164 1.86983 69.7988 2.66084 69.6011 3.36946C69.4034 4.01765 68.9642 4.59993 68.3273 4.946C67.8881 5.1877 67.5861 5.58321 67.4488 6.03914C67.3225 6.48409 67.361 6.98396 67.6026 7.42342L68.9313 9.85689C69.2168 10.3787 69.0246 11.0379 68.4975 11.3236L63.7922 13.9054C63.3035 14.169 62.9686 14.6085 62.8258 15.1029C62.6776 15.6027 62.7215 16.1466 62.9906 16.6355C63.5231 17.6077 64.7475 17.9703 65.7248 17.432L70.4302 14.8557C70.9572 14.5645 71.6106 14.7623 71.9016 15.2841L73.0711 17.4265C73.3621 17.9538 73.1699 18.613 72.6428 18.8986L67.932 21.4804C67.2621 21.843 66.8833 22.5351 66.8833 23.2437C66.8833 23.5678 66.9602 23.9029 67.1304 24.205C67.6629 25.1828 68.8873 25.5454 69.8646 25.007L74.5755 22.4362C75.0971 22.1451 75.7614 22.3374 76.0469 22.8647L77.2164 25.0015C77.5019 25.5344 77.3097 26.1881 76.7881 26.4792L72.0773 29.0555C71.5886 29.3192 71.2537 29.7586 71.111 30.2585C70.9627 30.7474 71.0121 31.3022 71.2757 31.7856C71.8083 32.7634 73.0272 33.1204 74.0099 32.5821L78.7977 29.9564C79.2863 29.6982 79.8848 29.841 80.2087 30.2915C82.3006 33.1534 85.7706 34.7519 89.3723 34.4333C104.79 33.0545 120.251 37.8226 132.231 47.6828L152.266 33.6038C151.354 31.1539 150.855 28.5007 150.855 25.7321C150.855 13.2572 160.957 3.14424 173.426 3.14424C185.89 3.14424 195.998 13.2572 195.998 25.7321C195.998 38.2016 185.89 48.309 173.426 48.309C167.87 48.309 162.786 46.2985 158.854 42.9697ZM131.265 98.6264C132.258 97.731 133.84 98.577 133.62 99.8954C130.529 118.775 114.145 133.184 94.3961 133.184C72.4452 133.184 54.6505 115.375 54.6505 93.4134V93.3969C54.6505 92.2873 55.1007 91.2107 55.8968 90.4361C64.764 81.7954 79.8738 87.9367 94.7475 94.0781C109.067 99.9942 123.166 105.905 131.265 98.6264Z" fill="#022B3E"/>
</svg>
