<svg width="52" height="52" viewBox="0 0 52 52" fill="none" xmlns="http://www.w3.org/2000/svg">
<mask id="mask0_59_66" style="mask-type:luminance" maskUnits="userSpaceOnUse" x="0" y="0" width="52" height="52">
<path d="M0.112427 0.00354004H51.7394V51.6558H0.112427V0.00354004Z" fill="white"/>
</mask>
<g mask="url(#mask0_59_66)">
<path d="M50.5699 0.646278L43.4927 7.73246C42.9601 7.40836 42.3781 7.28751 41.7577 7.36442C41.1373 7.44132 40.6102 7.6995 40.1655 8.13895L36.981 11.3305C36.5967 11.1327 36.1904 11.0668 35.7676 11.1382C35.3393 11.2041 34.977 11.3909 34.6695 11.693L32.1658 14.1979C31.9352 14.0221 31.6827 13.8958 31.4027 13.8134C31.1281 13.731 30.8426 13.7035 30.5571 13.7255C30.2661 13.742 29.9916 13.8134 29.7281 13.9342C29.4645 14.0551 29.2339 14.2199 29.0253 14.4231L9.79212 33.6657L9.55603 33.4295C9.35289 33.2262 9.11679 33.0669 8.85325 32.9571C8.58422 32.8472 8.30969 32.7923 8.02419 32.7923C7.73868 32.7923 7.45867 32.8472 7.19512 32.9571C6.93158 33.0669 6.69549 33.2262 6.49234 33.4295C6.28919 33.6327 6.12997 33.8634 6.02016 34.1326C5.91035 34.3963 5.85545 34.6709 5.85545 34.9566C5.85545 35.2477 5.91035 35.5224 6.02016 35.786C6.12997 36.0552 6.28919 36.2859 6.49234 36.4892L9.64937 39.6477L5.25698 44.0478L3.77455 42.5701C3.58239 42.3778 3.36277 42.235 3.1157 42.1361C2.86862 42.0318 2.60508 41.9823 2.34154 41.9823C2.0725 41.9823 1.80896 42.0373 1.56189 42.1416C1.31482 42.2405 1.0952 42.3888 0.908521 42.5811C0.716354 42.7679 0.568112 42.9876 0.463792 43.2348C0.364964 43.4875 0.310059 43.7456 0.310059 44.0148C0.310059 44.284 0.359472 44.5422 0.458302 44.7893C0.562621 45.0365 0.705373 45.2563 0.89754 45.4485L6.72843 51.2878C6.9206 51.4855 7.14022 51.6393 7.39278 51.7437C7.64534 51.8536 7.9034 51.9085 8.17792 51.914C8.45245 51.914 8.71599 51.8645 8.96855 51.7602C9.22111 51.6558 9.44622 51.5075 9.63839 51.3152C9.83056 51.123 9.9788 50.8977 10.0831 50.6451C10.1874 50.3924 10.2369 50.1287 10.2369 49.854C10.2314 49.5794 10.1765 49.3212 10.0666 49.0685C9.96233 48.8158 9.80859 48.5961 9.61094 48.4038L8.134 46.9262L12.5264 42.5317L15.6834 45.6902C15.8866 45.8935 16.1227 46.0473 16.3862 46.1571C16.6552 46.267 16.9298 46.3219 17.2153 46.3219C17.5008 46.3219 17.7808 46.267 18.0443 46.1571C18.3079 46.0473 18.544 45.8935 18.7471 45.6902C18.9502 45.487 19.104 45.2508 19.2138 44.9871C19.3236 44.7234 19.3785 44.4433 19.3785 44.1576C19.3785 43.872 19.3236 43.5918 19.2138 43.3282C19.104 43.0645 18.9502 42.8283 18.7471 42.625L18.5055 42.3833L37.7387 23.1408C37.9473 22.9375 38.1065 22.7013 38.2273 22.4377C38.3481 22.174 38.4195 21.8993 38.4415 21.6082C38.4579 21.3225 38.4305 21.0369 38.3481 20.7622C38.2658 20.4821 38.1395 20.2294 37.9638 19.9987L40.4675 17.4938C40.7749 17.1862 40.9561 16.8236 41.0275 16.3952C41.0934 15.9722 41.0275 15.5657 40.8353 15.1812L44.0198 11.9952C44.459 11.5557 44.7171 11.0229 44.794 10.4021C44.8708 9.78141 44.75 9.20463 44.4261 8.6663L51.5088 1.58561C52.1347 0.959389 51.1959 0.0255494 50.5699 0.646278ZM8.67206 49.3432C8.8258 49.4805 8.90816 49.6508 8.91365 49.854C8.91914 50.0628 8.84776 50.2331 8.70501 50.3814C8.56226 50.5242 8.38656 50.5956 8.17792 50.5901C7.97477 50.5846 7.80457 50.5022 7.66731 50.3484L1.83092 44.5092C1.69366 44.3719 1.62228 44.2016 1.62228 44.0038C1.62228 43.8116 1.69366 43.6413 1.83092 43.5039C1.96818 43.3611 2.13839 43.2952 2.33605 43.2952C2.52821 43.2952 2.69842 43.3611 2.83568 43.5039L8.67206 49.3432ZM7.19512 45.9923L6.19037 44.9871L10.5828 40.5871L11.593 41.5978L7.19512 45.9923ZM17.8082 44.7509C17.6435 44.9157 17.4459 44.9981 17.2153 44.9981C16.9847 44.9981 16.787 44.9157 16.6223 44.7509L7.42572 35.5553C7.26101 35.3905 7.17865 35.1928 7.17865 34.9621C7.17865 34.7259 7.26101 34.5281 7.42572 34.3633C7.59044 34.204 7.7881 34.1216 8.0187 34.1216C8.25479 34.1216 8.45245 34.204 8.61716 34.3633L17.8082 43.5644C17.9729 43.7292 18.0553 43.9269 18.0553 44.1576C18.0553 44.3883 17.9729 44.5861 17.8082 44.7509ZM36.8053 22.2015L35.0813 23.9263L32.6325 21.4764C32.0066 20.8611 31.0842 21.7895 31.6937 22.4157L34.1424 24.8656L32.7149 26.2939L31.7266 25.3051C31.5948 25.1787 31.4411 25.1183 31.2599 25.1183C31.0787 25.1238 30.925 25.1897 30.7987 25.3161C30.6724 25.4424 30.6065 25.5962 30.6065 25.7775C30.6011 25.9533 30.6614 26.1126 30.7877 26.2389L31.776 27.2332L30.3485 28.6614L27.8997 26.2115C27.7735 26.0851 27.6142 26.0247 27.4385 26.0302C27.2573 26.0302 27.1036 26.0961 26.9773 26.2225C26.8511 26.3488 26.7852 26.5026 26.7797 26.6839C26.7797 26.8652 26.8401 27.019 26.9664 27.1508L29.4151 29.6007L27.9821 31.029L26.9938 30.0402C26.3734 29.414 25.4345 30.3478 26.0604 30.974L27.0487 31.9628L25.6157 33.3965L23.1669 30.9466C22.5465 30.3204 21.6076 31.2597 22.2336 31.8804L24.6823 34.3304L23.2548 35.7641L22.261 34.7698C21.6406 34.1491 20.7072 35.0829 21.3276 35.7091L22.3159 36.6979L20.8884 38.1261L18.4396 35.6762C17.8137 35.0555 16.8803 35.9893 17.5008 36.6155L19.955 39.0655L17.5721 41.4495L10.731 34.605L29.9642 15.357C30.1728 15.1482 30.4309 15.0439 30.7273 15.0439C31.0293 15.0439 31.2819 15.1482 31.496 15.357L36.8053 20.6689C37.0139 20.8831 37.1237 21.1358 37.1237 21.4379C37.1237 21.7345 37.0139 21.9927 36.8053 22.2015ZM39.5341 16.5545L37.0469 19.0429L33.1267 15.1153L35.6084 12.6324C35.7401 12.5005 35.8939 12.4346 36.0806 12.4346C36.2617 12.4346 36.421 12.5005 36.5527 12.6324L39.5341 15.6151C39.6604 15.7415 39.7262 15.9008 39.7262 16.0876C39.7262 16.2688 39.6604 16.4281 39.5341 16.5545ZM43.0809 11.0613L39.9678 14.1759L37.9858 12.1984L41.1044 9.07829C41.3789 8.80912 41.7083 8.67179 42.0871 8.67728C42.4715 8.67728 42.8009 8.81461 43.0754 9.08378C43.3445 9.35844 43.4817 9.68803 43.4817 10.0725C43.4872 10.4571 43.35 10.7867 43.0809 11.0558V11.0613Z" fill="#022B3E"/>
</g>
<path d="M31.1885 16.9225C31.2543 17.0873 31.2598 17.2576 31.2049 17.4279C31.1445 17.5981 31.0402 17.73 30.881 17.8179C30.7273 17.9113 30.5625 17.9387 30.3869 17.9003C30.2057 17.8673 30.0629 17.7794 29.9531 17.6366C29.8488 17.4938 29.7994 17.329 29.8104 17.1532C29.8213 16.9719 29.8872 16.8181 30.019 16.6918C30.1013 16.6039 30.2002 16.5489 30.3155 16.5105C30.4308 16.4775 30.5461 16.472 30.6614 16.494C30.7822 16.516 30.8865 16.5654 30.9798 16.6423C31.0732 16.7192 31.139 16.8126 31.1885 16.9225ZM28.7287 18.1365L21.097 25.772C20.8883 25.9752 20.8389 26.2169 20.9542 26.4916C21.0695 26.7662 21.2727 26.8981 21.5691 26.8981C21.7503 26.8981 21.9041 26.8376 22.0358 26.7058L29.6676 19.0703C30.288 18.4496 29.3546 17.5103 28.7287 18.1365Z" fill="#022B3E"/>
</svg>
