<svg width="53" height="53" viewBox="0 0 53 53" fill="none" xmlns="http://www.w3.org/2000/svg">
<mask id="mask0_44_615" style="mask-type:luminance" maskUnits="userSpaceOnUse" x="0" y="0" width="53" height="53">
<path d="M0.651917 0.637451H52.2789V52.2897H0.651917V0.637451Z" fill="white"/>
</mask>
<g mask="url(#mask0_44_615)">
<path d="M34.4843 0.697845C33.9133 0.780243 33.4906 1.25815 33.4686 1.82944C33.4521 2.40622 33.8474 2.91159 34.4075 3.02695C37.4931 3.59274 41.2321 5.89438 44.2629 8.88266C47.2881 11.8764 49.6216 15.5733 50.2255 18.7044C50.2365 19.1714 50.522 19.5888 50.9613 19.7701C51.395 19.9459 51.8947 19.8525 52.2351 19.5229C52.57 19.1933 52.6798 18.6989 52.5206 18.2595C51.7794 14.3923 49.2043 10.4207 45.9265 7.17978C42.6487 3.93881 38.6736 1.43393 34.8522 0.730804C34.7314 0.697845 34.6106 0.68686 34.4843 0.697845ZM33.2984 6.62497C32.7493 6.68539 32.3156 7.11935 32.2552 7.66867C32.1948 8.21799 32.5187 8.73435 33.0403 8.92111C37.9324 10.8163 42.5499 15.3097 44.186 20.0338C44.2629 20.5007 44.6088 20.8687 45.059 20.9841C45.5092 21.0995 45.9869 20.9456 46.2779 20.5776C46.5689 20.2096 46.6238 19.7097 46.4097 19.2977C44.4825 13.7331 39.4697 8.86069 33.8914 6.69638C33.6992 6.62497 33.496 6.5975 33.2984 6.62497ZM32.0795 12.5521C31.5524 12.629 31.1461 13.0465 31.0747 13.5683C31.0089 14.0957 31.2944 14.601 31.783 14.8098C34.1 15.881 37.0703 18.644 38.3002 21.3302C38.432 21.7696 38.8108 22.0882 39.2611 22.1541C39.7168 22.2201 40.1615 22.0113 40.4195 21.6323C40.6666 21.2533 40.6831 20.7644 40.447 20.3689C38.8987 16.9851 35.7362 14.0298 32.7823 12.662C32.5627 12.5576 32.3156 12.5136 32.0795 12.5521ZM20.2255 14.9251C19.9126 14.9746 19.6326 15.1449 19.4459 15.403L17.0795 18.7374C16.8214 19.0999 16.805 19.5669 17.0026 19.9624C17.0136 19.9843 18.1007 22.2201 18.0403 24.3734C18.0019 25.6972 17.3266 27.1639 16.19 28.301L6.55973 37.7822C6.5213 37.8261 6.48835 37.8866 6.44992 37.9305C5.52203 39.1665 5.17064 43.7313 5.04436 46.5658L0.635498 50.9713L2.30461 52.6412L6.81778 48.1203C13.8236 47.9445 15.0535 46.9997 15.4104 46.5273L24.9693 37.1175C26.1553 35.9255 27.6102 35.14 28.7797 35.0796C30.8386 34.9697 32.8152 36.0958 32.8537 36.1178C33.2435 36.343 33.7321 36.332 34.1165 36.0793L37.6688 33.7063C37.9324 33.5305 38.13 33.2393 38.1849 32.9317C38.2288 32.723 39.0908 27.7572 32.2991 20.9621C25.5239 14.1836 20.4452 14.8922 20.2255 14.9251ZM21.5982 30.339C21.9001 30.339 22.2186 30.4378 22.4492 30.6685C22.9104 31.1355 22.9104 31.91 22.4492 32.3769L20.0773 34.7445C19.8467 34.9752 19.5337 35.0796 19.2263 35.0796C18.9188 35.0796 18.6443 34.9752 18.4137 34.7445C17.947 34.2831 17.947 33.503 18.4137 33.0416L20.7801 30.6685C21.0107 30.4378 21.2962 30.339 21.5982 30.339Z" fill="#022B3E"/>
</g>
</svg>
