<svg width="91" height="53" viewBox="0 0 91 53" fill="none" xmlns="http://www.w3.org/2000/svg">
<mask id="mask0_44_629" style="mask-type:luminance" maskUnits="userSpaceOnUse" x="0" y="0" width="91" height="53">
<path d="M0.174194 0.213257H90.1303V52.9202H0.174194V0.213257Z" fill="white"/>
</mask>
<g mask="url(#mask0_44_629)">
<path d="M89.1474 10.7216C86.9732 5.55807 81.7023 4.02548 81.1368 3.87167C77.8864 2.98178 74.4329 3.79476 73.1646 4.08041C72.4014 4.2452 71.5888 4.47592 69.9801 4.80001C67.6631 5.26144 66.5047 5.50314 65.2968 5.54708C63.4739 5.59652 62.1891 5.22848 59.7569 4.50338C56.8414 3.62997 56.232 3.10263 53.6734 2.21823C52.18 1.70187 49.5995 0.806483 46.8103 0.559291C42.8352 0.207728 39.7166 1.2789 36.4003 2.42147C31.6401 4.05844 30.7177 5.38229 27.0995 5.6185C26.21 5.67892 25.5951 5.68991 21.8176 5.09664C10.908 3.39926 10.1064 3.32235 8.79968 3.6849C3.85824 5.0527 1.57969 9.93063 1.44243 10.2382C1.23928 10.6832 -1.14359 16.2258 1.96403 20.9554C3.12252 22.7187 4.62142 23.7185 5.53833 24.2238C5.86227 25.2511 5.9062 25.3444 5.9062 25.3444C6.21915 25.9652 6.99331 26.1959 7.83884 26.3882C9.3048 26.7177 10.035 26.877 11.4131 26.91C14.4768 26.9649 14.7623 27.9317 17.0629 28.0196C19.9179 28.135 23.9424 26.8166 25.1668 23.7789C25.2547 23.5592 26.1716 21.1971 24.8703 19.0877C23.7448 17.264 21.7188 16.8685 21.296 16.7861C19.1712 16.3631 17.3539 17.2915 15.7232 18.1209C13.1262 19.4448 13.3897 20.2468 11.781 20.505C10.0954 20.7741 8.88204 20.0381 7.24587 20.8785C6.72428 21.1422 6.35642 21.4718 6.1313 21.697C4.54456 20.4006 4.49514 20.3512 4.49514 20.3512C2.89741 18.9669 2.97977 15.9347 3.00722 15.1436C3.02918 14.3032 3.25978 10.046 6.80114 7.48068C7.04272 7.3049 9.21147 5.7778 12.1544 5.7723C13.1152 5.76681 13.5599 5.92611 16.2173 6.55233C21.0544 7.7004 20.5493 7.40377 21.6749 7.77731C23.5855 8.42001 27.1214 9.60104 28.6642 12.5399C29.4988 14.1274 29.0705 14.9129 29.411 17.6046C29.7459 20.2303 30.6738 22.3067 32.535 26.4541C35.9721 34.1335 37.3612 34.3148 37.6686 37.9183C37.8773 40.4287 37.2569 41.0329 37.74 44.0926C38.1683 46.8172 38.5416 49.2013 40.4907 50.8602C42.8187 52.8542 46.7224 53.2552 49.3359 51.5304C51.2192 50.2944 51.889 48.3169 52.3886 46.8447C53.3879 43.8949 52.6247 42.582 53.2067 38.5061C53.5746 35.9627 54.217 34.0896 54.5464 33.1502C56.5834 27.3275 58.8564 27.1682 60.1247 22.4331C60.8989 19.5492 60.2016 19.0603 61.3162 15.3634C62.4692 11.5291 63.7484 10.2767 64.292 9.82077C64.6214 9.54061 65.445 8.89791 69.0138 7.81027C72.8956 6.62924 74.8392 6.03598 77.4527 6.0964C79.6159 6.14584 81.8231 6.19528 83.9973 7.7004C84.3926 7.97506 87.352 10.0789 87.8297 13.8747C87.8901 14.3581 88.1811 17.0113 86.792 19.0822C86.4955 19.5217 85.9245 20.3731 84.9691 20.9444C84.6946 21.1092 83.7777 21.6146 83.7777 21.6146C82.9816 20.7027 82.9596 20.6808 82.9596 20.6808C82.0592 19.7964 80.4011 20.7796 78.4574 20.4226C77.5735 20.2578 77.5076 19.9776 75.7836 19.0053C73.1207 17.5167 71.3033 16.495 69.2719 16.6598C69.1291 16.6762 66.1368 16.9564 65.1101 19.0438C63.9131 21.4663 66.1697 24.7237 67.9706 26.2618C70.5676 28.481 74.3341 28.9535 77.0079 28.0086C78.3586 27.5307 78.4684 27.0309 80.2089 26.5584C82.3776 25.9652 83.9973 26.2563 84.7056 25.1797C84.9472 24.8116 85.0076 24.4051 85.0076 24.081C85.0076 24.0206 85.0076 23.9657 85.0076 23.9107C85.046 23.8833 86.7316 22.7572 87.5716 21.9826C89.0266 20.6203 89.4494 18.8625 89.7294 17.7035C89.8447 17.2256 90.553 14.067 89.1474 10.7216ZM56.5559 10.5294C55.5237 11.1007 52.4655 12.8145 50.2364 16.1873C47.0574 20.9774 47.3154 26.2728 47.4088 28.1679C47.546 31.0848 48.2433 33.3645 48.2982 37.5448C48.3147 39.0609 48.2159 38.0941 48.0731 41.791C48.0127 43.395 48.0072 44.208 47.4801 45.1363C47.3264 45.4055 46.5193 46.8227 45.4541 46.8337C43.8948 46.8447 42.8187 43.8289 42.643 43.351C41.6108 40.4616 42.2038 38.16 42.7199 34.8696C43.5599 29.4533 44.0486 26.3003 43.3348 22.7627C43.0273 21.2301 42.072 17.5826 39.0742 14.2537C38.2891 13.3858 35.6262 10.6173 31.4095 9.19455C29.2353 8.46395 27.4069 8.34311 27.4289 8.06295C27.4508 7.76083 29.647 7.50265 31.8542 7.85421C34.1108 8.21127 35.1211 8.99679 36.8396 9.7164C40.8092 11.3863 44.6031 11.0677 48.3696 10.7601C50.5164 10.5788 52.1196 10.447 54.1675 9.70541C56.0453 9.02426 56.5285 8.47494 58.3348 8.00253C61.0636 7.28293 63.721 7.55758 63.7649 7.92562C63.8253 8.35409 60.3992 8.42001 56.5559 10.5294Z" fill="#022B3E"/>
</g>
</svg>
